<svg width="106" height="78" viewBox="0 0 106 78" fill="none" xmlns="http://www.w3.org/2000/svg">
<path d="M24.0487 63.8472L6.31953 63.9585C6.01874 66.3108 6.23002 68.5817 6.20099 71.2566L24.6317 71.3953C24.764 73.446 24.7753 75.2064 24.6277 77.2273H0.0117188L0.0157499 44.0068L24.6188 44.0092C24.772 46.168 24.7817 48.051 24.6156 50.2058L6.26712 50.2284C6.13406 52.875 6.10099 55.2822 6.28163 57.9297L23.9463 57.9522C24.2116 59.8756 24.0624 61.3674 24.0487 63.8464V63.8472Z" fill="black"/>
<path d="M13.035 15.3914L28.0199 32.9875C25.1571 33.4568 22.5523 33.0859 19.6484 33.1633L8.88191 20.2219C7.99323 20.9017 6.57716 21.6468 6.55942 22.7919L6.39894 33.1496L0.0282252 33.1464L0 0.053321L6.44491 0.0799343L6.57474 13.7358L18.996 0.103319C21.7854 0.0315473 24.2797 -0.127316 27.2788 0.192833L19.8307 7.91511L13.0358 15.3914H13.035Z" fill="#61B7E7"/>
<path d="M58.0739 0.157229C60.1731 -0.0798582 62.1657 -0.0121185 64.3995 0.127392L64.2656 21.2072C64.2334 26.3078 61.4093 31.0649 56.7272 33.0608C51.6903 35.2083 45.9276 34.8736 41.3448 31.9656C37.6304 29.6085 35.4652 25.4836 35.4152 21.0758L35.1797 0.146745C37.4441 -0.0371183 39.419 -0.0556652 41.5552 0.147553L41.6859 20.8475C41.702 23.4281 43.3495 25.8852 45.0648 27.0747C47.2478 28.5876 49.8856 28.8771 52.4838 28.2206C55.6756 27.415 57.9377 24.2805 57.957 20.8604L58.0739 0.156422V0.157229Z" fill="#61B7E7"/>
<path d="M97.8936 77.1967L87.8859 51.8808L77.8403 77.1822C75.4444 77.279 73.2018 77.3225 70.6914 77.1419L84.4973 44.0384L91.2212 44.0222L105.017 77.1314C102.601 77.3451 100.507 77.2516 97.892 77.1975L97.8936 77.1967Z" fill="black"/>
<path d="M97.8817 0.147541C100.235 -0.0556763 102.487 -0.0395486 105.027 0.144315L91.319 33.1672C89.0506 33.3777 86.9611 33.2575 84.5241 33.2309L70.6602 0.0652875L77.8083 0.059642L87.7982 25.1256L97.8825 0.148349L97.8817 0.147541Z" fill="#61B7E7"/>
<path d="M54.4701 77.3003L39.5812 60.0687C44.1746 59.0059 53.7056 62.2977 53.9677 54.6093C54.0693 51.636 51.8565 49.0192 48.6462 49.0119L36.3878 48.9837L36.3789 42.875C41.0352 42.9726 45.5495 42.6775 50.0977 43.075C56.7821 43.6597 61.0457 49.1175 60.453 55.6012C60.0143 60.4002 57.0708 64.0879 52.0105 65.0637L62.3642 76.981C59.7586 77.589 57.4652 77.0358 54.4693 77.3003H54.4701Z" fill="black"/>
</svg>
