<svg width="212" height="59" viewBox="0 0 212 59" fill="none" xmlns="http://www.w3.org/2000/svg">
<g clip-path="url(#clip0_3779_4030)">
<path d="M35.8307 57.6553C51.4921 53.9469 61.1875 38.2128 57.4936 22.5102C53.7958 6.80379 38.1029 -2.91945 22.4454 0.788966C6.78403 4.49343 -2.91132 20.2315 0.78646 35.934C4.48424 51.6365 20.1772 61.3637 35.8346 57.6553H35.8307Z" fill="#4E68FF"/>
<path d="M57.4978 22.5104C56.9701 20.2633 56.1943 18.1425 55.2098 16.1599L55.2019 16.1678L36.8548 33.1775C35.7089 34.2399 34.0037 34.4255 32.6569 33.6317L24.8597 29.0505C23.5995 28.312 22.0165 28.4226 20.8744 29.3309C16.0465 33.1657 3.67721 42.9758 3.5 43.118C9.59996 54.4604 22.7253 60.7636 35.8349 57.6554C51.4963 53.947 61.1916 38.2129 57.4978 22.5104Z" fill="#00F6B6"/>
<path d="M96.339 45.3464V42.0211C95.9216 42.7398 95.2994 43.3836 94.4802 43.9523C93.6572 44.521 92.6727 44.9791 91.5228 45.3227C90.3729 45.6663 89.097 45.84 87.6951 45.84C84.9188 45.84 82.4339 45.145 80.2405 43.7509C78.047 42.3567 76.3221 40.4216 75.0699 37.9335C73.8176 35.4494 73.1875 32.5901 73.1875 29.3556C73.1875 26.903 73.5537 24.6559 74.2862 22.618C75.0187 20.5802 76.0465 18.8148 77.3775 17.318C78.7046 15.8212 80.2798 14.6601 82.1031 13.8387C83.9225 13.0172 85.9112 12.6025 88.0574 12.6025C91.3417 12.6025 94.0825 13.4319 96.276 15.0946C98.4694 16.7572 100.06 19.0083 101.045 21.8558L95.5829 23.6962C95.1064 21.7808 94.2243 20.2998 92.9405 19.2493C91.6567 18.2027 90.0461 17.6774 88.1046 17.6774C86.3128 17.6774 84.7219 18.1553 83.3357 19.115C81.9456 20.0747 80.8666 21.4214 80.0908 23.1551C79.315 24.8928 78.9252 26.9267 78.9252 29.2647C78.9252 31.6027 79.3111 33.5971 80.0908 35.3506C80.8666 37.1002 81.9574 38.4667 83.3593 39.4382C84.7613 40.4137 86.3758 40.8994 88.1952 40.8994C89.7468 40.8994 91.1054 40.5558 92.271 39.8647C93.4367 39.1775 94.3464 38.2415 95.004 37.0567C95.6616 35.8759 96.02 34.5173 96.0791 32.9929H87.6163V27.9615L101.588 27.9615V45.3424L96.339 45.3424V45.3464Z" fill="#24201D"/>
<path d="M120.963 21.3653V26.7522C120.632 26.6929 120.321 26.6534 120.022 26.6376C119.723 26.6218 119.38 26.6139 118.99 26.6139C117.856 26.6139 116.832 26.8588 115.922 27.3446C115.013 27.8343 114.296 28.5294 113.772 29.4298C113.249 30.3303 112.989 31.4242 112.989 32.7038V45.3416H107.613V21.7642H112.989V24.9631C113.497 23.8376 114.324 22.9411 115.474 22.2736C116.623 21.6062 117.943 21.2705 119.435 21.2705C119.762 21.2705 120.046 21.2784 120.286 21.2942C120.526 21.31 120.747 21.3337 120.959 21.3613H120.963V21.3653Z" fill="#24201D"/>
<path d="M145.198 33.5575C145.198 35.9864 144.714 38.123 143.741 39.9712C142.773 41.8156 141.434 43.2571 139.732 44.2918C138.031 45.3265 136.074 45.8439 133.865 45.8439C131.656 45.8439 129.698 45.3265 127.997 44.2918C126.296 43.2571 124.957 41.8156 123.988 39.9712C123.02 38.1269 122.531 35.9903 122.531 33.5575C122.531 31.1248 123.016 28.9526 123.988 27.1241C124.957 25.2956 126.296 23.862 127.997 22.8272C129.698 21.7925 131.656 21.2751 133.865 21.2751C136.074 21.2751 138.031 21.7925 139.732 22.8272C141.434 23.862 142.769 25.2956 143.741 27.1241C144.71 28.9526 145.198 31.0971 145.198 33.5575ZM127.958 33.5575C127.958 35.1491 128.198 36.5314 128.675 37.7004C129.151 38.8733 129.84 39.7659 130.734 40.382C131.628 40.9981 132.676 41.3061 133.869 41.3061C135.062 41.3061 136.145 40.9981 137.027 40.382C137.909 39.7659 138.586 38.8733 139.063 37.7004C139.539 36.5314 139.78 35.1491 139.78 33.5575C139.78 31.966 139.539 30.5482 139.063 29.391C138.586 28.2339 137.905 27.3492 137.027 26.7331C136.145 26.117 135.093 25.809 133.869 25.809C132.644 25.809 131.628 26.117 130.734 26.7331C129.84 27.3492 129.151 28.2339 128.675 29.391C128.198 30.5482 127.958 31.9383 127.958 33.5575Z" fill="#24201D"/>
<path d="M160.554 21.7681H164.988L169.198 37.3955L173.364 21.7681H178.692L171.616 45.3455H166.957L162.657 29.8958L158.356 45.3455H153.698L146.621 21.7681H152.13L156.383 37.3955L160.55 21.7681H160.554Z" fill="#24201D"/>
<path d="M193.237 21.7681H197.672L201.881 37.3955L206.048 21.7681H211.376L204.299 45.3455H199.641L195.34 29.8958L191.04 45.3455H186.381L179.305 21.7681H184.814L189.067 37.3955L193.233 21.7681H193.237Z" fill="#24201D"/>
</g>
<defs>
<clipPath id="clip0_3779_4030">
<rect width="211.38" height="58.446" fill="white"/>
</clipPath>
</defs>
</svg>
