<svg width="237" height="195" viewBox="0 0 237 195" fill="none" xmlns="http://www.w3.org/2000/svg">
<g clip-path="url(#clip0_3271_3923)">
<path d="M3.74219 163L6.75977 148.723H9.50391L10.7734 160.275H10.8516L17.082 148.723H20.0117L17.0332 163H15.1094L16.8672 154.66C16.9779 154.146 17.0885 153.651 17.1992 153.176C17.3164 152.694 17.4271 152.245 17.5312 151.828C17.6354 151.411 17.7298 151.05 17.8145 150.744H17.7656L11.0957 163H9.43555L8.07812 150.754H8C7.96745 151.027 7.91862 151.382 7.85352 151.818C7.78841 152.248 7.71354 152.71 7.62891 153.205C7.54427 153.693 7.45312 154.165 7.35547 154.621L5.58789 163H3.74219ZM23.752 163.195C23.1921 163.195 22.707 163.088 22.2969 162.873C21.8932 162.658 21.584 162.346 21.3691 161.936C21.1608 161.519 21.0566 161.014 21.0566 160.422C21.0566 160.148 21.0762 159.865 21.1152 159.572C21.1543 159.273 21.2031 158.964 21.2617 158.645L22.6387 152.238H24.6016L23.1758 158.908C23.1237 159.169 23.0814 159.406 23.0488 159.621C23.0228 159.836 23.0098 160.025 23.0098 160.188C23.0098 160.637 23.1204 160.985 23.3418 161.232C23.5697 161.473 23.9212 161.594 24.3965 161.594C24.8783 161.594 25.3633 161.421 25.8516 161.076C26.3464 160.731 26.7988 160.21 27.209 159.514C27.6191 158.817 27.9349 157.948 28.1562 156.906L29.1426 152.238H31.0762L28.8008 163H27.2383L27.4824 160.939H27.3945C27.1341 161.304 26.8314 161.659 26.4863 162.004C26.1413 162.349 25.7441 162.635 25.2949 162.863C24.8457 163.085 24.3314 163.195 23.752 163.195ZM35.3242 163.195C34.5755 163.195 33.9603 163.023 33.4785 162.678C32.9967 162.326 32.7559 161.721 32.7559 160.861C32.7559 160.666 32.7656 160.458 32.7852 160.236C32.8112 160.008 32.8535 159.774 32.9121 159.533L34.1328 153.732H32.5215L32.7168 152.805L34.5234 152.092L35.7246 149.816H36.9258L36.3984 152.238H39.1621L38.8496 153.732H36.0957L34.8652 159.553C34.8262 159.715 34.7904 159.888 34.7578 160.07C34.7318 160.246 34.7188 160.412 34.7188 160.568C34.7188 160.874 34.8001 161.125 34.9629 161.32C35.1322 161.509 35.3991 161.604 35.7637 161.604C36.0176 161.604 36.2585 161.581 36.4863 161.535C36.7142 161.483 36.9616 161.411 37.2285 161.32V162.805C37.0267 162.902 36.7467 162.99 36.3887 163.068C36.0371 163.153 35.6823 163.195 35.3242 163.195ZM42.4043 163.195C41.8444 163.195 41.3594 163.088 40.9492 162.873C40.5456 162.658 40.2363 162.346 40.0215 161.936C39.8132 161.519 39.709 161.014 39.709 160.422C39.709 160.148 39.7285 159.865 39.7676 159.572C39.8066 159.273 39.8555 158.964 39.9141 158.645L41.291 152.238H43.2539L41.8281 158.908C41.776 159.169 41.7337 159.406 41.7012 159.621C41.6751 159.836 41.6621 160.025 41.6621 160.188C41.6621 160.637 41.7728 160.985 41.9941 161.232C42.222 161.473 42.5736 161.594 43.0488 161.594C43.5306 161.594 44.0156 161.421 44.5039 161.076C44.9987 160.731 45.4512 160.21 45.8613 159.514C46.2715 158.817 46.5872 157.948 46.8086 156.906L47.7949 152.238H49.7285L47.4531 163H45.8906L46.1348 160.939H46.0469C45.7865 161.304 45.4837 161.659 45.1387 162.004C44.7936 162.349 44.3965 162.635 43.9473 162.863C43.498 163.085 42.9837 163.195 42.4043 163.195ZM54.1621 163.195C53.5957 163.195 53.0879 163.059 52.6387 162.785C52.196 162.505 51.8477 162.089 51.5938 161.535C51.3398 160.982 51.2129 160.288 51.2129 159.455C51.2129 158.687 51.2943 157.941 51.457 157.219C51.6198 156.496 51.8509 155.822 52.1504 155.197C52.4564 154.572 52.821 154.025 53.2441 153.557C53.6738 153.081 54.1556 152.71 54.6895 152.443C55.2298 152.176 55.8092 152.043 56.4277 152.043C56.9095 152.043 57.3262 152.128 57.6777 152.297C58.0293 152.466 58.3255 152.694 58.5664 152.98C58.8073 153.26 58.9961 153.566 59.1328 153.898H59.2305L59.8359 152.238H61.3301L59.0547 163H57.5312L57.7852 161.096H57.707C57.4206 161.467 57.0983 161.812 56.7402 162.131C56.3822 162.45 55.9883 162.707 55.5586 162.902C55.1289 163.098 54.6634 163.195 54.1621 163.195ZM54.8457 161.594C55.321 161.594 55.7865 161.418 56.2422 161.066C56.6979 160.708 57.1016 160.23 57.4531 159.631C57.8112 159.032 58.0814 158.365 58.2637 157.629C58.3548 157.277 58.4167 156.949 58.4492 156.643C58.4818 156.337 58.498 156.04 58.498 155.754C58.498 155.135 58.3353 154.634 58.0098 154.25C57.6842 153.859 57.2383 153.664 56.6719 153.664C56.2747 153.664 55.9004 153.771 55.5488 153.986C55.1973 154.195 54.8783 154.484 54.5918 154.855C54.3053 155.227 54.0579 155.656 53.8496 156.145C53.6478 156.626 53.4883 157.15 53.3711 157.717C53.2604 158.283 53.2051 158.859 53.2051 159.445C53.2051 160.148 53.3483 160.682 53.6348 161.047C53.9212 161.411 54.3249 161.594 54.8457 161.594ZM62.2285 163L65.4707 147.805H67.4238L64.1914 163H62.2285ZM71.3398 167.805C71.0664 167.805 70.8125 167.782 70.5781 167.736C70.3372 167.697 70.1322 167.648 69.9629 167.59V165.969C70.1452 166.034 70.3275 166.086 70.5098 166.125C70.6855 166.164 70.8776 166.184 71.0859 166.184C71.5417 166.184 71.9095 166.005 72.1895 165.646C72.4629 165.295 72.6745 164.774 72.8242 164.084L75.0117 153.732H73.2148L73.3906 152.854L75.3242 152.209L75.5391 151.223C75.6888 150.559 75.8711 150.002 76.0859 149.553C76.3073 149.097 76.5677 148.732 76.8672 148.459C77.1667 148.186 77.5117 147.99 77.9023 147.873C78.2995 147.756 78.7487 147.697 79.25 147.697C79.6081 147.697 79.9629 147.736 80.3145 147.814C80.666 147.893 80.9622 147.987 81.2031 148.098L80.6953 149.572C80.5 149.494 80.2917 149.429 80.0703 149.377C79.8555 149.318 79.6178 149.289 79.3574 149.289C78.8496 149.289 78.4492 149.439 78.1562 149.738C77.8633 150.031 77.6387 150.546 77.4824 151.281L77.2676 152.238H79.5332L79.2305 153.732H76.9648L74.7188 164.338C74.569 165.041 74.3542 165.653 74.0742 166.174C73.8008 166.695 73.4427 167.095 73 167.375C72.5573 167.661 72.0039 167.805 71.3398 167.805ZM82.541 163.195C81.9811 163.195 81.4961 163.088 81.0859 162.873C80.6823 162.658 80.373 162.346 80.1582 161.936C79.9499 161.519 79.8457 161.014 79.8457 160.422C79.8457 160.148 79.8652 159.865 79.9043 159.572C79.9434 159.273 79.9922 158.964 80.0508 158.645L81.4277 152.238H83.3906L81.9648 158.908C81.9128 159.169 81.8704 159.406 81.8379 159.621C81.8118 159.836 81.7988 160.025 81.7988 160.188C81.7988 160.637 81.9095 160.985 82.1309 161.232C82.3587 161.473 82.7103 161.594 83.1855 161.594C83.6673 161.594 84.1523 161.421 84.6406 161.076C85.1354 160.731 85.5879 160.21 85.998 159.514C86.4082 158.817 86.724 157.948 86.9453 156.906L87.9316 152.238H89.8652L87.5898 163H86.0273L86.2715 160.939H86.1836C85.9232 161.304 85.6204 161.659 85.2754 162.004C84.9303 162.349 84.5332 162.635 84.084 162.863C83.6348 163.085 83.1204 163.195 82.541 163.195ZM90.8711 163L93.166 152.209H94.8066L94.5625 154.26H94.6016C94.8555 153.895 95.1549 153.54 95.5 153.195C95.8451 152.85 96.2422 152.567 96.6914 152.346C97.1471 152.118 97.6615 152.004 98.2344 152.004C98.8203 152.004 99.3184 152.115 99.7285 152.336C100.145 152.557 100.461 152.876 100.676 153.293C100.897 153.71 101.008 154.211 101.008 154.797C101.008 155.083 100.985 155.38 100.939 155.686C100.894 155.992 100.845 156.275 100.793 156.535L99.3965 163H97.3652L98.7812 156.34C98.8398 156.06 98.8854 155.819 98.918 155.617C98.9505 155.409 98.9668 155.217 98.9668 155.041C98.9668 154.598 98.8529 154.266 98.625 154.045C98.3971 153.817 98.0586 153.703 97.6094 153.703C97.1406 153.703 96.6621 153.872 96.1738 154.211C95.6921 154.549 95.2493 155.061 94.8457 155.744C94.4421 156.428 94.1263 157.29 93.8984 158.332L92.9023 163H90.8711ZM105.959 163.195C105.393 163.195 104.885 163.062 104.436 162.795C103.993 162.521 103.645 162.108 103.391 161.555C103.137 161.001 103.01 160.301 103.01 159.455C103.01 158.7 103.088 157.964 103.244 157.248C103.4 156.525 103.625 155.852 103.918 155.227C104.211 154.602 104.569 154.051 104.992 153.576C105.422 153.101 105.907 152.73 106.447 152.463C106.994 152.196 107.59 152.062 108.234 152.062C108.723 152.062 109.136 152.15 109.475 152.326C109.82 152.495 110.109 152.72 110.344 153C110.578 153.273 110.767 153.573 110.91 153.898H111.008C111.034 153.664 111.063 153.41 111.096 153.137C111.135 152.857 111.18 152.567 111.232 152.268C111.285 151.968 111.343 151.669 111.408 151.369L112.16 147.805H114.104L110.881 163H109.318L109.562 161.096H109.484C109.185 161.473 108.859 161.822 108.508 162.141C108.156 162.46 107.769 162.717 107.346 162.912C106.929 163.101 106.467 163.195 105.959 163.195ZM106.682 161.594C106.988 161.594 107.29 161.516 107.59 161.359C107.889 161.203 108.176 160.988 108.449 160.715C108.723 160.435 108.973 160.113 109.201 159.748C109.429 159.377 109.628 158.977 109.797 158.547C109.973 158.111 110.106 157.661 110.197 157.199C110.295 156.73 110.344 156.262 110.344 155.793C110.344 155.148 110.188 154.634 109.875 154.25C109.569 153.859 109.087 153.664 108.43 153.664C108.026 153.664 107.648 153.775 107.297 153.996C106.945 154.211 106.626 154.507 106.34 154.885C106.06 155.262 105.819 155.699 105.617 156.193C105.422 156.682 105.269 157.206 105.158 157.766C105.054 158.319 105.002 158.879 105.002 159.445C105.002 160.148 105.142 160.682 105.422 161.047C105.708 161.411 106.128 161.594 106.682 161.594ZM116.916 163.195C116.252 163.195 115.669 163.133 115.168 163.01C114.673 162.886 114.234 162.723 113.85 162.521V160.793C114.227 161.014 114.68 161.213 115.207 161.389C115.734 161.564 116.278 161.652 116.838 161.652C117.333 161.652 117.749 161.587 118.088 161.457C118.433 161.32 118.697 161.132 118.879 160.891C119.061 160.65 119.152 160.363 119.152 160.031C119.152 159.777 119.097 159.556 118.986 159.367C118.876 159.178 118.687 158.99 118.42 158.801C118.16 158.605 117.805 158.384 117.355 158.137C116.867 157.863 116.454 157.587 116.115 157.307C115.777 157.02 115.52 156.708 115.344 156.369C115.168 156.024 115.08 155.624 115.08 155.168C115.08 154.523 115.233 153.97 115.539 153.508C115.852 153.039 116.288 152.678 116.848 152.424C117.414 152.17 118.078 152.043 118.84 152.043C119.484 152.043 120.083 152.118 120.637 152.268C121.197 152.411 121.695 152.593 122.131 152.814L121.496 154.318C121.145 154.136 120.751 153.977 120.314 153.84C119.878 153.697 119.393 153.625 118.859 153.625C118.319 153.625 117.88 153.749 117.541 153.996C117.209 154.243 117.043 154.582 117.043 155.012C117.043 155.24 117.095 155.445 117.199 155.627C117.303 155.809 117.482 155.992 117.736 156.174C117.99 156.35 118.339 156.558 118.781 156.799C119.224 157.053 119.624 157.316 119.982 157.59C120.34 157.857 120.624 158.166 120.832 158.518C121.04 158.869 121.145 159.299 121.145 159.807C121.145 160.536 120.972 161.154 120.627 161.662C120.282 162.163 119.794 162.544 119.162 162.805C118.531 163.065 117.782 163.195 116.916 163.195ZM130.959 163.195C130.295 163.195 129.712 163.133 129.211 163.01C128.716 162.886 128.277 162.723 127.893 162.521V160.793C128.27 161.014 128.723 161.213 129.25 161.389C129.777 161.564 130.321 161.652 130.881 161.652C131.376 161.652 131.792 161.587 132.131 161.457C132.476 161.32 132.74 161.132 132.922 160.891C133.104 160.65 133.195 160.363 133.195 160.031C133.195 159.777 133.14 159.556 133.029 159.367C132.919 159.178 132.73 158.99 132.463 158.801C132.202 158.605 131.848 158.384 131.398 158.137C130.91 157.863 130.497 157.587 130.158 157.307C129.82 157.02 129.562 156.708 129.387 156.369C129.211 156.024 129.123 155.624 129.123 155.168C129.123 154.523 129.276 153.97 129.582 153.508C129.895 153.039 130.331 152.678 130.891 152.424C131.457 152.17 132.121 152.043 132.883 152.043C133.527 152.043 134.126 152.118 134.68 152.268C135.24 152.411 135.738 152.593 136.174 152.814L135.539 154.318C135.188 154.136 134.794 153.977 134.357 153.84C133.921 153.697 133.436 153.625 132.902 153.625C132.362 153.625 131.923 153.749 131.584 153.996C131.252 154.243 131.086 154.582 131.086 155.012C131.086 155.24 131.138 155.445 131.242 155.627C131.346 155.809 131.525 155.992 131.779 156.174C132.033 156.35 132.382 156.558 132.824 156.799C133.267 157.053 133.667 157.316 134.025 157.59C134.383 157.857 134.667 158.166 134.875 158.518C135.083 158.869 135.188 159.299 135.188 159.807C135.188 160.536 135.015 161.154 134.67 161.662C134.325 162.163 133.837 162.544 133.205 162.805C132.574 163.065 131.825 163.195 130.959 163.195ZM140.49 163.195C139.924 163.195 139.416 163.059 138.967 162.785C138.524 162.505 138.176 162.089 137.922 161.535C137.668 160.982 137.541 160.288 137.541 159.455C137.541 158.687 137.622 157.941 137.785 157.219C137.948 156.496 138.179 155.822 138.479 155.197C138.785 154.572 139.149 154.025 139.572 153.557C140.002 153.081 140.484 152.71 141.018 152.443C141.558 152.176 142.137 152.043 142.756 152.043C143.238 152.043 143.654 152.128 144.006 152.297C144.357 152.466 144.654 152.694 144.895 152.98C145.135 153.26 145.324 153.566 145.461 153.898H145.559L146.164 152.238H147.658L145.383 163H143.859L144.113 161.096H144.035C143.749 161.467 143.426 161.812 143.068 162.131C142.71 162.45 142.316 162.707 141.887 162.902C141.457 163.098 140.992 163.195 140.49 163.195ZM141.174 161.594C141.649 161.594 142.115 161.418 142.57 161.066C143.026 160.708 143.43 160.23 143.781 159.631C144.139 159.032 144.41 158.365 144.592 157.629C144.683 157.277 144.745 156.949 144.777 156.643C144.81 156.337 144.826 156.04 144.826 155.754C144.826 155.135 144.663 154.634 144.338 154.25C144.012 153.859 143.566 153.664 143 153.664C142.603 153.664 142.229 153.771 141.877 153.986C141.525 154.195 141.206 154.484 140.92 154.855C140.633 155.227 140.386 155.656 140.178 156.145C139.976 156.626 139.816 157.15 139.699 157.717C139.589 158.283 139.533 158.859 139.533 159.445C139.533 160.148 139.676 160.682 139.963 161.047C140.249 161.411 140.653 161.594 141.174 161.594ZM148.576 163L151.799 147.805H153.752L152.961 151.418C152.909 151.704 152.84 152.007 152.756 152.326C152.678 152.645 152.593 152.961 152.502 153.273C152.417 153.586 152.336 153.882 152.258 154.162H152.346C152.606 153.824 152.906 153.495 153.244 153.176C153.583 152.85 153.97 152.583 154.406 152.375C154.849 152.167 155.344 152.062 155.891 152.062C156.47 152.062 156.962 152.17 157.365 152.385C157.769 152.6 158.078 152.915 158.293 153.332C158.508 153.749 158.615 154.266 158.615 154.885C158.615 155.132 158.596 155.393 158.557 155.666C158.518 155.939 158.469 156.226 158.41 156.525L157.033 163H155.07L156.477 156.35C156.535 156.076 156.577 155.839 156.604 155.637C156.63 155.428 156.643 155.246 156.643 155.09C156.643 154.628 156.532 154.276 156.311 154.035C156.089 153.788 155.741 153.664 155.266 153.664C154.784 153.664 154.296 153.837 153.801 154.182C153.312 154.52 152.867 155.035 152.463 155.725C152.059 156.415 151.743 157.284 151.516 158.332L150.529 163H148.576ZM160.236 163L162.521 152.238H164.475L162.189 163H160.236ZM164.035 150.5C163.736 150.5 163.485 150.419 163.283 150.256C163.081 150.093 162.98 149.852 162.98 149.533C162.98 149.279 163.029 149.051 163.127 148.85C163.231 148.641 163.378 148.479 163.566 148.361C163.762 148.244 163.996 148.186 164.27 148.186C164.582 148.186 164.826 148.264 165.002 148.42C165.184 148.57 165.275 148.801 165.275 149.113C165.275 149.53 165.155 149.865 164.914 150.119C164.68 150.373 164.387 150.5 164.035 150.5ZM170.705 163L173.928 147.805H175.881L175.09 151.418C175.038 151.704 174.969 152.007 174.885 152.326C174.807 152.645 174.722 152.961 174.631 153.273C174.546 153.586 174.465 153.882 174.387 154.162H174.475C174.735 153.824 175.035 153.495 175.373 153.176C175.712 152.85 176.099 152.583 176.535 152.375C176.978 152.167 177.473 152.062 178.02 152.062C178.599 152.062 179.09 152.17 179.494 152.385C179.898 152.6 180.207 152.915 180.422 153.332C180.637 153.749 180.744 154.266 180.744 154.885C180.744 155.132 180.725 155.393 180.686 155.666C180.646 155.939 180.598 156.226 180.539 156.525L179.162 163H177.199L178.605 156.35C178.664 156.076 178.706 155.839 178.732 155.637C178.758 155.428 178.771 155.246 178.771 155.09C178.771 154.628 178.661 154.276 178.439 154.035C178.218 153.788 177.87 153.664 177.395 153.664C176.913 153.664 176.424 153.837 175.93 154.182C175.441 154.52 174.995 155.035 174.592 155.725C174.188 156.415 173.872 157.284 173.645 158.332L172.658 163H170.705ZM185.744 163.195C185.178 163.195 184.67 163.059 184.221 162.785C183.778 162.505 183.43 162.089 183.176 161.535C182.922 160.982 182.795 160.288 182.795 159.455C182.795 158.687 182.876 157.941 183.039 157.219C183.202 156.496 183.433 155.822 183.732 155.197C184.038 154.572 184.403 154.025 184.826 153.557C185.256 153.081 185.738 152.71 186.271 152.443C186.812 152.176 187.391 152.043 188.01 152.043C188.492 152.043 188.908 152.128 189.26 152.297C189.611 152.466 189.908 152.694 190.148 152.98C190.389 153.26 190.578 153.566 190.715 153.898H190.812L191.418 152.238H192.912L190.637 163H189.113L189.367 161.096H189.289C189.003 161.467 188.68 161.812 188.322 162.131C187.964 162.45 187.57 162.707 187.141 162.902C186.711 163.098 186.245 163.195 185.744 163.195ZM186.428 161.594C186.903 161.594 187.368 161.418 187.824 161.066C188.28 160.708 188.684 160.23 189.035 159.631C189.393 159.032 189.663 158.365 189.846 157.629C189.937 157.277 189.999 156.949 190.031 156.643C190.064 156.337 190.08 156.04 190.08 155.754C190.08 155.135 189.917 154.634 189.592 154.25C189.266 153.859 188.82 153.664 188.254 153.664C187.857 153.664 187.482 153.771 187.131 153.986C186.779 154.195 186.46 154.484 186.174 154.855C185.887 155.227 185.64 155.656 185.432 156.145C185.23 156.626 185.07 157.15 184.953 157.717C184.842 158.283 184.787 158.859 184.787 159.445C184.787 160.148 184.93 160.682 185.217 161.047C185.503 161.411 185.907 161.594 186.428 161.594ZM193.83 163L196.115 152.238H198.068L195.783 163H193.83ZM197.629 150.5C197.329 150.5 197.079 150.419 196.877 150.256C196.675 150.093 196.574 149.852 196.574 149.533C196.574 149.279 196.623 149.051 196.721 148.85C196.825 148.641 196.971 148.479 197.16 148.361C197.355 148.244 197.59 148.186 197.863 148.186C198.176 148.186 198.42 148.264 198.596 148.42C198.778 148.57 198.869 148.801 198.869 149.113C198.869 149.53 198.749 149.865 198.508 150.119C198.273 150.373 197.98 150.5 197.629 150.5ZM197.697 165.578C197.938 165.038 198.179 164.478 198.42 163.898C198.654 163.326 198.876 162.762 199.084 162.209C199.299 161.656 199.491 161.145 199.66 160.676H201.672L201.75 160.9C201.535 161.376 201.288 161.883 201.008 162.424C200.728 162.964 200.428 163.505 200.109 164.045C199.797 164.585 199.484 165.096 199.172 165.578H197.697ZM6.71094 189.195C5.96224 189.195 5.34701 189.023 4.86523 188.678C4.38346 188.326 4.14258 187.721 4.14258 186.861C4.14258 186.666 4.15234 186.458 4.17188 186.236C4.19792 186.008 4.24023 185.774 4.29883 185.533L5.51953 179.732H3.9082L4.10352 178.805L5.91016 178.092L7.11133 175.816H8.3125L7.78516 178.238H10.5488L10.2363 179.732H7.48242L6.25195 185.553C6.21289 185.715 6.17708 185.888 6.14453 186.07C6.11849 186.246 6.10547 186.412 6.10547 186.568C6.10547 186.874 6.18685 187.125 6.34961 187.32C6.51888 187.509 6.78581 187.604 7.15039 187.604C7.4043 187.604 7.64518 187.581 7.87305 187.535C8.10091 187.483 8.34831 187.411 8.61523 187.32V188.805C8.41341 188.902 8.13346 188.99 7.77539 189.068C7.42383 189.153 7.06901 189.195 6.71094 189.195ZM14.9531 189.166C14.1328 189.166 13.4232 189 12.8242 188.668C12.2253 188.329 11.763 187.851 11.4375 187.232C11.112 186.614 10.9492 185.882 10.9492 185.035C10.9492 184.332 11.0241 183.645 11.1738 182.975C11.3236 182.298 11.5449 181.666 11.8379 181.08C12.1374 180.488 12.5085 179.967 12.9512 179.518C13.3939 179.068 13.9049 178.717 14.4844 178.463C15.0638 178.209 15.7116 178.082 16.4277 178.082C17.2611 178.082 17.974 178.251 18.5664 178.59C19.1654 178.922 19.6243 179.4 19.9434 180.025C20.2689 180.65 20.4316 181.396 20.4316 182.262C20.4316 182.945 20.3568 183.619 20.207 184.283C20.0638 184.947 19.8457 185.576 19.5527 186.168C19.2598 186.754 18.8952 187.271 18.459 187.721C18.0228 188.17 17.5117 188.525 16.9258 188.785C16.3464 189.039 15.6888 189.166 14.9531 189.166ZM15.0898 187.555C15.474 187.555 15.8353 187.47 16.1738 187.301C16.5189 187.132 16.8281 186.891 17.1016 186.578C17.3815 186.259 17.6191 185.878 17.8145 185.436C18.0163 184.986 18.1693 184.485 18.2734 183.932C18.3841 183.372 18.4395 182.77 18.4395 182.125C18.4395 181.715 18.3711 181.324 18.2344 180.953C18.1042 180.582 17.8893 180.279 17.5898 180.045C17.2904 179.811 16.89 179.693 16.3887 179.693C15.9525 179.693 15.5521 179.791 15.1875 179.986C14.8294 180.175 14.5104 180.442 14.2305 180.787C13.9505 181.126 13.7129 181.523 13.5176 181.979C13.3288 182.428 13.1823 182.916 13.0781 183.443C12.974 183.971 12.9219 184.518 12.9219 185.084C12.9219 185.872 13.1074 186.48 13.4785 186.91C13.8561 187.34 14.3932 187.555 15.0898 187.555ZM21.877 189L25.0996 173.805H27.0527L26.2617 177.418C26.2096 177.704 26.1413 178.007 26.0566 178.326C25.9785 178.645 25.8939 178.961 25.8027 179.273C25.7181 179.586 25.6367 179.882 25.5586 180.162H25.6465C25.9069 179.824 26.2064 179.495 26.5449 179.176C26.8835 178.85 27.2708 178.583 27.707 178.375C28.1497 178.167 28.6445 178.062 29.1914 178.062C29.7708 178.062 30.2624 178.17 30.666 178.385C31.0697 178.6 31.3789 178.915 31.5938 179.332C31.8086 179.749 31.916 180.266 31.916 180.885C31.916 181.132 31.8965 181.393 31.8574 181.666C31.8184 181.939 31.7695 182.226 31.7109 182.525L30.334 189H28.3711L29.7773 182.35C29.8359 182.076 29.8783 181.839 29.9043 181.637C29.9303 181.428 29.9434 181.246 29.9434 181.09C29.9434 180.628 29.8327 180.276 29.6113 180.035C29.39 179.788 29.0417 179.664 28.5664 179.664C28.0846 179.664 27.5964 179.837 27.1016 180.182C26.6133 180.52 26.1673 181.035 25.7637 181.725C25.36 182.415 25.0443 183.284 24.8164 184.332L23.8301 189H21.877ZM41.3301 193.805C40.054 193.805 39.0547 193.564 38.332 193.082C37.6094 192.6 37.248 191.926 37.248 191.061C37.248 190.37 37.4824 189.775 37.9512 189.273C38.4134 188.772 39.1523 188.352 40.168 188.014C39.9271 187.877 39.7415 187.708 39.6113 187.506C39.4876 187.304 39.4258 187.07 39.4258 186.803C39.4258 186.354 39.582 185.966 39.8945 185.641C40.2135 185.315 40.6758 185.012 41.2812 184.732C40.8646 184.492 40.5358 184.166 40.2949 183.756C40.054 183.339 39.9336 182.854 39.9336 182.301C39.9401 181.663 40.0475 181.08 40.2559 180.553C40.4707 180.019 40.7702 179.566 41.1543 179.195C41.5254 178.837 41.9648 178.561 42.4727 178.365C42.987 178.163 43.5534 178.062 44.1719 178.062C44.4258 178.062 44.6797 178.079 44.9336 178.111C45.1875 178.144 45.4382 178.193 45.6855 178.258H49.3574L49.0938 179.41L47.082 179.664C47.2057 179.859 47.3001 180.084 47.3652 180.338C47.4303 180.592 47.4596 180.868 47.4531 181.168C47.4531 181.799 47.349 182.372 47.1406 182.887C46.9323 183.395 46.6328 183.827 46.2422 184.186C45.8776 184.518 45.4414 184.775 44.9336 184.957C44.4258 185.139 43.8594 185.23 43.2344 185.23C43.0521 185.23 42.8893 185.224 42.7461 185.211C42.6029 185.198 42.4792 185.178 42.375 185.152C41.9518 185.302 41.6361 185.478 41.4277 185.68C41.2259 185.882 41.125 186.1 41.125 186.334C41.125 186.503 41.1771 186.643 41.2812 186.754C41.3854 186.845 41.5286 186.917 41.7109 186.969C41.8932 187.021 42.1178 187.063 42.3848 187.096L43.5762 187.232C44.3444 187.324 44.9694 187.477 45.4512 187.691C45.9329 187.906 46.2878 188.199 46.5156 188.57C46.7435 188.935 46.8574 189.387 46.8574 189.928C46.8574 190.624 46.7044 191.227 46.3984 191.734C46.0924 192.249 45.6465 192.672 45.0605 193.004C44.5983 193.264 44.0547 193.463 43.4297 193.6C42.8047 193.736 42.1048 193.805 41.3301 193.805ZM41.4277 192.418C42.0072 192.418 42.5215 192.366 42.9707 192.262C43.4199 192.164 43.7975 192.021 44.1035 191.832C44.416 191.63 44.6536 191.389 44.8164 191.109C44.9857 190.836 45.0703 190.52 45.0703 190.162C45.0703 190.006 45.0443 189.863 44.9922 189.732C44.9466 189.609 44.8717 189.498 44.7676 189.4C44.5983 189.238 44.3607 189.107 44.0547 189.01C43.7487 188.912 43.3613 188.84 42.8926 188.795L41.3887 188.639C40.8678 188.743 40.4284 188.899 40.0703 189.107C39.7188 189.316 39.4518 189.566 39.2695 189.859C39.0872 190.159 38.9961 190.494 38.9961 190.865C38.9961 191.36 39.2012 191.741 39.6113 192.008C40.028 192.281 40.6335 192.418 41.4277 192.418ZM43.293 183.961C43.7943 183.961 44.2207 183.827 44.5723 183.561C44.9238 183.287 45.194 182.926 45.3828 182.477C45.5716 182.021 45.666 181.52 45.666 180.973C45.666 180.712 45.6302 180.481 45.5586 180.279C45.4935 180.077 45.3958 179.911 45.2656 179.781C45.1354 179.645 44.9727 179.544 44.7773 179.479C44.5885 179.407 44.3704 179.371 44.123 179.371C43.752 179.371 43.4167 179.449 43.1172 179.605C42.8242 179.755 42.5736 179.967 42.3652 180.24C42.1634 180.507 42.0072 180.82 41.8965 181.178C41.7858 181.536 41.7305 181.92 41.7305 182.33C41.7305 182.564 41.7598 182.776 41.8184 182.965C41.877 183.147 41.9616 183.303 42.0723 183.434C42.3327 183.785 42.7396 183.961 43.293 183.961ZM49.2207 189L51.5059 178.238H53.459L51.1738 189H49.2207ZM53.0195 176.5C52.7201 176.5 52.4694 176.419 52.2676 176.256C52.0658 176.093 51.9648 175.852 51.9648 175.533C51.9648 175.279 52.0137 175.051 52.1113 174.85C52.2155 174.641 52.362 174.479 52.5508 174.361C52.7461 174.244 52.9805 174.186 53.2539 174.186C53.5664 174.186 53.8105 174.264 53.9863 174.42C54.1686 174.57 54.2598 174.801 54.2598 175.113C54.2598 175.53 54.1393 175.865 53.8984 176.119C53.6641 176.373 53.3711 176.5 53.0195 176.5ZM53.1172 193.805C52.8438 193.805 52.5898 193.782 52.3555 193.736C52.1146 193.697 51.9095 193.648 51.7402 193.59V191.969C51.9225 192.034 52.1048 192.086 52.2871 192.125C52.4629 192.164 52.6549 192.184 52.8633 192.184C53.319 192.184 53.6868 192.005 53.9668 191.646C54.2402 191.295 54.4518 190.774 54.6016 190.084L56.7891 179.732H54.9922L55.168 178.854L57.1016 178.209L57.3164 177.223C57.4661 176.559 57.6484 176.002 57.8633 175.553C58.0846 175.097 58.3451 174.732 58.6445 174.459C58.944 174.186 59.2891 173.99 59.6797 173.873C60.0768 173.756 60.526 173.697 61.0273 173.697C61.3854 173.697 61.7402 173.736 62.0918 173.814C62.4434 173.893 62.7396 173.987 62.9805 174.098L62.4727 175.572C62.2773 175.494 62.069 175.429 61.8477 175.377C61.6328 175.318 61.3952 175.289 61.1348 175.289C60.627 175.289 60.2266 175.439 59.9336 175.738C59.6406 176.031 59.416 176.546 59.2598 177.281L59.0449 178.238H61.3105L61.0078 179.732H58.7422L56.4961 190.338C56.3464 191.041 56.1315 191.653 55.8516 192.174C55.5781 192.695 55.2201 193.095 54.7773 193.375C54.3346 193.661 53.7812 193.805 53.1172 193.805ZM64.2305 189.195C63.4818 189.195 62.8665 189.023 62.3848 188.678C61.903 188.326 61.6621 187.721 61.6621 186.861C61.6621 186.666 61.6719 186.458 61.6914 186.236C61.7174 186.008 61.7598 185.774 61.8184 185.533L63.0391 179.732H61.4277L61.623 178.805L63.4297 178.092L64.6309 175.816H65.832L65.3047 178.238H68.0684L67.7559 179.732H65.002L63.7715 185.553C63.7324 185.715 63.6966 185.888 63.6641 186.07C63.638 186.246 63.625 186.412 63.625 186.568C63.625 186.874 63.7064 187.125 63.8691 187.32C64.0384 187.509 64.3053 187.604 64.6699 187.604C64.9238 187.604 65.1647 187.581 65.3926 187.535C65.6204 187.483 65.8678 187.411 66.1348 187.32V188.805C65.9329 188.902 65.653 188.99 65.2949 189.068C64.9434 189.153 64.5885 189.195 64.2305 189.195ZM73.2051 189L76.4277 173.805H78.4004L77.043 180.152C76.9193 180.712 76.8021 181.207 76.6914 181.637C76.5807 182.066 76.4798 182.428 76.3887 182.721C76.304 183.007 76.2389 183.232 76.1934 183.395H76.2422L81.3008 178.238H83.5859L78.8984 182.926L81.7598 189H79.5918L77.4043 184.156L75.9492 185.279L75.1777 189H73.2051ZM82.4727 193.814C82.1471 193.814 81.8835 193.795 81.6816 193.756C81.4733 193.717 81.278 193.668 81.0957 193.609V192.037C81.2715 192.076 81.4635 192.112 81.6719 192.145C81.8737 192.184 82.0951 192.203 82.3359 192.203C82.8893 192.203 83.3581 192.031 83.7422 191.686C84.1328 191.34 84.5039 190.852 84.8555 190.221L85.4805 189.098L83.8496 178.238H85.8027L86.4961 183.629C86.5547 184.026 86.6003 184.452 86.6328 184.908C86.6654 185.364 86.6882 185.797 86.7012 186.207C86.7207 186.617 86.7305 186.959 86.7305 187.232H86.7891C86.8802 187.018 87.0072 186.725 87.1699 186.354C87.3327 185.976 87.5052 185.582 87.6875 185.172C87.8763 184.755 88.0553 184.391 88.2246 184.078L91.2715 178.238H93.3711L86.5645 190.777C86.2064 191.454 85.8288 192.018 85.4316 192.467C85.0345 192.916 84.5951 193.251 84.1133 193.473C83.638 193.701 83.0911 193.814 82.4727 193.814ZM96.1934 189.195C95.6335 189.195 95.1484 189.088 94.7383 188.873C94.3346 188.658 94.0254 188.346 93.8105 187.936C93.6022 187.519 93.498 187.014 93.498 186.422C93.498 186.148 93.5176 185.865 93.5566 185.572C93.5957 185.273 93.6445 184.964 93.7031 184.645L95.0801 178.238H97.043L95.6172 184.908C95.5651 185.169 95.5228 185.406 95.4902 185.621C95.4642 185.836 95.4512 186.025 95.4512 186.188C95.4512 186.637 95.5618 186.985 95.7832 187.232C96.0111 187.473 96.3626 187.594 96.8379 187.594C97.3197 187.594 97.8047 187.421 98.293 187.076C98.7878 186.731 99.2402 186.21 99.6504 185.514C100.061 184.817 100.376 183.948 100.598 182.906L101.584 178.238H103.518L101.242 189H99.6797L99.9238 186.939H99.8359C99.5755 187.304 99.2728 187.659 98.9277 188.004C98.5827 188.349 98.1855 188.635 97.7363 188.863C97.2871 189.085 96.7728 189.195 96.1934 189.195ZM104.523 189L106.818 178.209H108.459L108.215 180.26H108.254C108.508 179.895 108.807 179.54 109.152 179.195C109.497 178.85 109.895 178.567 110.344 178.346C110.799 178.118 111.314 178.004 111.887 178.004C112.473 178.004 112.971 178.115 113.381 178.336C113.798 178.557 114.113 178.876 114.328 179.293C114.549 179.71 114.66 180.211 114.66 180.797C114.66 181.083 114.637 181.38 114.592 181.686C114.546 181.992 114.497 182.275 114.445 182.535L113.049 189H111.018L112.434 182.34C112.492 182.06 112.538 181.819 112.57 181.617C112.603 181.409 112.619 181.217 112.619 181.041C112.619 180.598 112.505 180.266 112.277 180.045C112.049 179.817 111.711 179.703 111.262 179.703C110.793 179.703 110.314 179.872 109.826 180.211C109.344 180.549 108.902 181.061 108.498 181.744C108.094 182.428 107.779 183.29 107.551 184.332L106.555 189H104.523ZM121.379 189L123.674 178.209H125.314L125.07 180.26H125.109C125.363 179.895 125.663 179.54 126.008 179.195C126.353 178.85 126.75 178.567 127.199 178.346C127.655 178.118 128.169 178.004 128.742 178.004C129.328 178.004 129.826 178.115 130.236 178.336C130.653 178.557 130.969 178.876 131.184 179.293C131.405 179.71 131.516 180.211 131.516 180.797C131.516 181.083 131.493 181.38 131.447 181.686C131.402 181.992 131.353 182.275 131.301 182.535L129.904 189H127.873L129.289 182.34C129.348 182.06 129.393 181.819 129.426 181.617C129.458 181.409 129.475 181.217 129.475 181.041C129.475 180.598 129.361 180.266 129.133 180.045C128.905 179.817 128.566 179.703 128.117 179.703C127.648 179.703 127.17 179.872 126.682 180.211C126.2 180.549 125.757 181.061 125.354 181.744C124.95 182.428 124.634 183.29 124.406 184.332L123.41 189H121.379ZM136.467 189.195C135.9 189.195 135.393 189.059 134.943 188.785C134.501 188.505 134.152 188.089 133.898 187.535C133.645 186.982 133.518 186.288 133.518 185.455C133.518 184.687 133.599 183.941 133.762 183.219C133.924 182.496 134.156 181.822 134.455 181.197C134.761 180.572 135.126 180.025 135.549 179.557C135.979 179.081 136.46 178.71 136.994 178.443C137.535 178.176 138.114 178.043 138.732 178.043C139.214 178.043 139.631 178.128 139.982 178.297C140.334 178.466 140.63 178.694 140.871 178.98C141.112 179.26 141.301 179.566 141.438 179.898H141.535L142.141 178.238H143.635L141.359 189H139.836L140.09 187.096H140.012C139.725 187.467 139.403 187.812 139.045 188.131C138.687 188.45 138.293 188.707 137.863 188.902C137.434 189.098 136.968 189.195 136.467 189.195ZM137.15 187.594C137.626 187.594 138.091 187.418 138.547 187.066C139.003 186.708 139.406 186.23 139.758 185.631C140.116 185.032 140.386 184.365 140.568 183.629C140.66 183.277 140.721 182.949 140.754 182.643C140.786 182.337 140.803 182.04 140.803 181.754C140.803 181.135 140.64 180.634 140.314 180.25C139.989 179.859 139.543 179.664 138.977 179.664C138.579 179.664 138.205 179.771 137.854 179.986C137.502 180.195 137.183 180.484 136.896 180.855C136.61 181.227 136.363 181.656 136.154 182.145C135.952 182.626 135.793 183.15 135.676 183.717C135.565 184.283 135.51 184.859 135.51 185.445C135.51 186.148 135.653 186.682 135.939 187.047C136.226 187.411 136.63 187.594 137.15 187.594ZM149.729 189L152.951 173.805H154.924L153.566 180.152C153.443 180.712 153.326 181.207 153.215 181.637C153.104 182.066 153.003 182.428 152.912 182.721C152.827 183.007 152.762 183.232 152.717 183.395H152.766L157.824 178.238H160.109L155.422 182.926L158.283 189H156.115L153.928 184.156L152.473 185.279L151.701 189H149.729ZM163.303 189.195C162.736 189.195 162.229 189.059 161.779 188.785C161.337 188.505 160.988 188.089 160.734 187.535C160.48 186.982 160.354 186.288 160.354 185.455C160.354 184.687 160.435 183.941 160.598 183.219C160.76 182.496 160.992 181.822 161.291 181.197C161.597 180.572 161.962 180.025 162.385 179.557C162.814 179.081 163.296 178.71 163.83 178.443C164.37 178.176 164.95 178.043 165.568 178.043C166.05 178.043 166.467 178.128 166.818 178.297C167.17 178.466 167.466 178.694 167.707 178.98C167.948 179.26 168.137 179.566 168.273 179.898H168.371L168.977 178.238H170.471L168.195 189H166.672L166.926 187.096H166.848C166.561 187.467 166.239 187.812 165.881 188.131C165.523 188.45 165.129 188.707 164.699 188.902C164.27 189.098 163.804 189.195 163.303 189.195ZM163.986 187.594C164.462 187.594 164.927 187.418 165.383 187.066C165.839 186.708 166.242 186.23 166.594 185.631C166.952 185.032 167.222 184.365 167.404 183.629C167.495 183.277 167.557 182.949 167.59 182.643C167.622 182.337 167.639 182.04 167.639 181.754C167.639 181.135 167.476 180.634 167.15 180.25C166.825 179.859 166.379 179.664 165.812 179.664C165.415 179.664 165.041 179.771 164.689 179.986C164.338 180.195 164.019 180.484 163.732 180.855C163.446 181.227 163.199 181.656 162.99 182.145C162.788 182.626 162.629 183.15 162.512 183.717C162.401 184.283 162.346 184.859 162.346 185.445C162.346 186.148 162.489 186.682 162.775 187.047C163.062 187.411 163.465 187.594 163.986 187.594ZM171.389 189L173.674 178.238H175.227L174.992 180.299H175.09C175.37 179.908 175.669 179.54 175.988 179.195C176.307 178.85 176.665 178.574 177.062 178.365C177.466 178.15 177.925 178.043 178.439 178.043C178.622 178.043 178.811 178.056 179.006 178.082C179.201 178.102 179.38 178.134 179.543 178.18L179.113 179.977C178.957 179.938 178.794 179.908 178.625 179.889C178.462 179.863 178.29 179.85 178.107 179.85C177.645 179.85 177.212 179.967 176.809 180.201C176.411 180.429 176.05 180.742 175.725 181.139C175.406 181.529 175.132 181.979 174.904 182.486C174.676 182.988 174.504 183.515 174.387 184.068L173.342 189H171.389ZM183.84 189.195C183.026 189.195 182.32 189.036 181.721 188.717C181.128 188.398 180.669 187.936 180.344 187.33C180.018 186.718 179.855 185.979 179.855 185.113C179.855 184.234 179.982 183.375 180.236 182.535C180.49 181.695 180.858 180.937 181.34 180.26C181.822 179.583 182.404 179.046 183.088 178.648C183.771 178.245 184.546 178.043 185.412 178.043C186.454 178.043 187.242 178.277 187.775 178.746C188.309 179.215 188.576 179.846 188.576 180.641C188.576 181.188 188.449 181.692 188.195 182.154C187.948 182.61 187.564 183.007 187.043 183.346C186.522 183.678 185.868 183.938 185.08 184.127C184.292 184.309 183.358 184.4 182.277 184.4H181.877C181.864 184.505 181.854 184.618 181.848 184.742C181.841 184.866 181.838 184.983 181.838 185.094C181.838 185.882 182.036 186.503 182.434 186.959C182.831 187.408 183.42 187.633 184.201 187.633C184.729 187.633 185.223 187.561 185.686 187.418C186.148 187.275 186.646 187.076 187.18 186.822V188.424C186.672 188.658 186.161 188.847 185.646 188.99C185.132 189.127 184.53 189.195 183.84 189.195ZM182.131 182.906H182.424C183.238 182.906 183.964 182.831 184.602 182.682C185.24 182.532 185.744 182.298 186.115 181.979C186.493 181.66 186.682 181.253 186.682 180.758C186.682 180.406 186.564 180.123 186.33 179.908C186.102 179.693 185.757 179.586 185.295 179.586C184.865 179.586 184.442 179.719 184.025 179.986C183.609 180.247 183.231 180.628 182.893 181.129C182.561 181.624 182.307 182.216 182.131 182.906ZM189.67 189L191.955 178.238H193.908L191.623 189H189.67ZM193.469 176.5C193.169 176.5 192.919 176.419 192.717 176.256C192.515 176.093 192.414 175.852 192.414 175.533C192.414 175.279 192.463 175.051 192.561 174.85C192.665 174.641 192.811 174.479 193 174.361C193.195 174.244 193.43 174.186 193.703 174.186C194.016 174.186 194.26 174.264 194.436 174.42C194.618 174.57 194.709 174.801 194.709 175.113C194.709 175.53 194.589 175.865 194.348 176.119C194.113 176.373 193.82 176.5 193.469 176.5ZM194.895 189L197.189 178.209H198.83L198.586 180.26H198.625C198.879 179.895 199.178 179.54 199.523 179.195C199.868 178.85 200.266 178.567 200.715 178.346C201.171 178.118 201.685 178.004 202.258 178.004C202.844 178.004 203.342 178.115 203.752 178.336C204.169 178.557 204.484 178.876 204.699 179.293C204.921 179.71 205.031 180.211 205.031 180.797C205.031 181.083 205.008 181.38 204.963 181.686C204.917 181.992 204.868 182.275 204.816 182.535L203.42 189H201.389L202.805 182.34C202.863 182.06 202.909 181.819 202.941 181.617C202.974 181.409 202.99 181.217 202.99 181.041C202.99 180.598 202.876 180.266 202.648 180.045C202.421 179.817 202.082 179.703 201.633 179.703C201.164 179.703 200.686 179.872 200.197 180.211C199.715 180.549 199.273 181.061 198.869 181.744C198.465 182.428 198.15 183.29 197.922 184.332L196.926 189H194.895ZM208.615 184.84C208.719 184.241 208.863 183.723 209.045 183.287C209.234 182.851 209.488 182.451 209.807 182.086C210.132 181.715 210.542 181.344 211.037 180.973C211.473 180.654 211.864 180.348 212.209 180.055C212.561 179.762 212.837 179.446 213.039 179.107C213.247 178.769 213.352 178.368 213.352 177.906C213.352 177.366 213.199 176.943 212.893 176.637C212.587 176.331 212.137 176.178 211.545 176.178C211.057 176.178 210.572 176.262 210.09 176.432C209.615 176.594 209.136 176.793 208.654 177.027L207.99 175.543C208.55 175.25 209.156 175.006 209.807 174.811C210.464 174.615 211.125 174.518 211.789 174.518C212.87 174.518 213.726 174.788 214.357 175.328C214.989 175.868 215.305 176.653 215.305 177.682C215.305 178.307 215.188 178.86 214.953 179.342C214.719 179.824 214.383 180.276 213.947 180.699C213.518 181.116 213.003 181.542 212.404 181.979C211.929 182.324 211.551 182.626 211.271 182.887C210.992 183.147 210.777 183.424 210.627 183.717C210.477 184.01 210.347 184.384 210.236 184.84H208.615ZM208.742 189.273C208.378 189.273 208.101 189.173 207.912 188.971C207.73 188.769 207.639 188.505 207.639 188.18C207.639 187.757 207.762 187.376 208.01 187.037C208.257 186.699 208.654 186.529 209.201 186.529C209.527 186.529 209.784 186.624 209.973 186.812C210.168 187.001 210.266 187.275 210.266 187.633C210.266 188.056 210.135 188.437 209.875 188.775C209.621 189.107 209.243 189.273 208.742 189.273Z" fill="#4C2D4F"/>
<path d="M58.8476 114.123H3V103.823L38.9919 52.2384H3.97276V39.0776H57.8748V49.3488L21.9401 100.991H58.8476V114.123Z" fill="#4C2D4F"/>
<path d="M81.818 46.4295C86.9107 46.4295 91.2881 47.4022 94.9788 49.3478C98.6409 51.2933 101.502 54.1257 103.505 57.8451C105.507 61.5644 106.509 66.0849 106.509 71.435V78.7307H71.0033C71.1749 82.965 72.4338 86.2838 74.8084 88.7157C77.1831 91.1476 80.5019 92.3492 84.7363 92.3492C88.2553 92.3492 91.4597 91.9773 94.4066 91.262C97.3249 90.5468 100.329 89.4596 103.419 88.0004V99.6163C100.701 100.961 97.8398 101.934 94.8644 102.563C91.8889 103.193 88.284 103.507 84.0496 103.507C78.5278 103.507 73.6354 102.477 69.4011 100.446C65.1667 98.4146 61.8193 95.2961 59.3874 91.1476C56.9555 86.9705 55.7539 81.7348 55.7539 75.3832C55.7539 69.0317 56.8411 63.5671 59.0441 59.3042C61.2185 55.0126 64.2798 51.8082 68.1708 49.6339C72.0905 47.4881 76.6395 46.4009 81.818 46.4009V46.4295ZM81.9038 57.1298C78.9856 57.1298 76.5537 58.0739 74.6368 59.9336C72.7199 61.7933 71.6041 64.7402 71.318 68.7456H92.4039C92.4039 66.514 91.9747 64.5113 91.2022 62.7947C90.4297 61.0494 89.2853 59.6761 87.7404 58.6461C86.224 57.6162 84.2499 57.1298 81.9038 57.1298Z" fill="#4C2D4F"/>
<path d="M235.001 80.5902C235.001 85.2537 234.371 89.4022 233.112 93.0071C231.853 96.612 230.051 99.6733 227.648 102.134C225.244 104.623 222.383 106.511 219.036 107.77C215.689 109.029 211.912 109.658 207.706 109.658C203.758 109.658 200.153 109.029 196.863 107.77C193.573 106.511 190.712 104.623 188.308 102.134C185.876 99.6447 184.017 96.612 182.701 93.0071C181.385 89.4022 180.727 85.2823 180.727 80.5902C180.727 74.3817 181.814 69.1174 184.045 64.8258C186.248 60.5343 189.367 57.2441 193.458 55.0125C197.521 52.7808 202.385 51.665 208.021 51.665C213.257 51.665 217.892 52.7808 221.954 55.0125C226.017 57.2441 229.193 60.5057 231.51 64.8258C233.828 69.1174 235.001 74.3817 235.001 80.5902ZM196.319 80.5902C196.319 84.2523 196.72 87.3422 197.521 89.8313C198.322 92.3205 199.581 94.2374 201.269 95.4962C202.957 96.7551 205.188 97.3845 207.935 97.3845C210.682 97.3845 212.827 96.7551 214.515 95.4962C216.175 94.2374 217.434 92.3491 218.206 89.8313C218.979 87.3422 219.379 84.2523 219.379 80.5902C219.379 76.928 218.979 73.8095 218.206 71.349C217.434 68.8885 216.175 67.0574 214.487 65.8272C212.799 64.5969 210.567 63.9675 207.821 63.9675C203.787 63.9675 200.84 65.3408 199.037 68.116C197.206 70.8913 196.319 75.0398 196.319 80.5616V80.5902Z" fill="#4C2D4F"/>
<path d="M132.348 98.6436V67.773H142.906L145.624 56.6721H132.348V52.4664C132.348 44.8846 135.352 41.0794 141.446 41.0794C143.134 41.0794 144.823 41.3655 146.453 41.8805L145.452 29.6067C143.306 29.0058 141.075 28.6911 138.872 28.7483C125.081 28.7483 117.585 38.247 117.585 53.2389V56.6435H110.891L108.201 67.7444H117.585V91.348C117.585 97.7281 117.385 104.623 116.87 109.43H132.863C132.463 105.853 132.291 102.249 132.348 98.6436Z" fill="#4C2D4F"/>
<path d="M165.075 114.809V83.9385H175.632L178.35 72.8376H165.075V68.6319C165.075 61.0501 168.079 57.245 174.173 57.245C175.861 57.245 177.549 57.5311 179.18 58.0461L178.179 45.7722C176.033 45.1714 173.801 44.8566 171.598 44.9139C157.808 44.9139 150.312 54.4125 150.312 69.4044V72.809H143.617L140.928 83.9099H150.312V107.513C150.312 113.894 150.112 120.789 149.597 125.595H165.59C165.189 122.019 165.018 118.414 165.075 114.809Z" fill="#4C2D4F"/>
<path d="M8.68359 4.72266C10.526 4.72266 11.8704 5.08398 12.7168 5.80664C13.5697 6.52279 13.9961 7.55143 13.9961 8.89258C13.9961 9.49805 13.8952 10.0742 13.6934 10.6211C13.498 11.1615 13.179 11.64 12.7363 12.0566C12.2936 12.4668 11.7109 12.7923 10.9883 13.0332C10.2721 13.2676 9.39323 13.3848 8.35156 13.3848H6.61328V19H4.95312V4.72266H8.68359ZM8.52734 6.13867H6.61328V11.959H8.16602C9.07747 11.959 9.83594 11.8613 10.4414 11.666C11.0534 11.4707 11.5124 11.1549 11.8184 10.7188C12.1243 10.276 12.2773 9.6901 12.2773 8.96094C12.2773 8.01042 11.9746 7.30404 11.3691 6.8418C10.7637 6.37305 9.81641 6.13867 8.52734 6.13867ZM25.9688 13.6289C25.9688 14.5078 25.8548 15.2923 25.627 15.9824C25.3991 16.6725 25.0703 17.2552 24.6406 17.7305C24.2109 18.2057 23.6901 18.5703 23.0781 18.8242C22.4727 19.0716 21.7858 19.1953 21.0176 19.1953C20.3014 19.1953 19.6439 19.0716 19.0449 18.8242C18.4525 18.5703 17.9382 18.2057 17.502 17.7305C17.0723 17.2552 16.737 16.6725 16.4961 15.9824C16.2617 15.2923 16.1445 14.5078 16.1445 13.6289C16.1445 12.457 16.3431 11.4609 16.7402 10.6406C17.1374 9.8138 17.7038 9.18555 18.4395 8.75586C19.1816 8.31966 20.0638 8.10156 21.0859 8.10156C22.0625 8.10156 22.9154 8.31966 23.6445 8.75586C24.3802 9.19206 24.9499 9.82357 25.3535 10.6504C25.7637 11.4707 25.9688 12.4635 25.9688 13.6289ZM17.8242 13.6289C17.8242 14.4883 17.9382 15.2337 18.166 15.8652C18.3939 16.4967 18.7454 16.985 19.2207 17.3301C19.696 17.6751 20.3079 17.8477 21.0566 17.8477C21.7988 17.8477 22.4076 17.6751 22.8828 17.3301C23.3646 16.985 23.7194 16.4967 23.9473 15.8652C24.1751 15.2337 24.2891 14.4883 24.2891 13.6289C24.2891 12.776 24.1751 12.0404 23.9473 11.4219C23.7194 10.7969 23.3678 10.3151 22.8926 9.97656C22.4173 9.63802 21.8021 9.46875 21.0469 9.46875C19.9336 9.46875 19.1165 9.83659 18.5957 10.5723C18.0814 11.3079 17.8242 12.3268 17.8242 13.6289ZM37.4824 18.9805L35.5781 12.75C35.4935 12.4831 35.4121 12.2227 35.334 11.9688C35.2624 11.7083 35.194 11.4609 35.1289 11.2266C35.0703 10.9857 35.015 10.7643 34.9629 10.5625C34.9173 10.3542 34.8783 10.1751 34.8457 10.0254H34.7773C34.7513 10.1751 34.7155 10.3542 34.6699 10.5625C34.6243 10.7643 34.569 10.9857 34.5039 11.2266C34.4453 11.4674 34.3802 11.7214 34.3086 11.9883C34.237 12.2487 34.1556 12.5124 34.0645 12.7793L32.0723 18.9805H30.2461L27.2969 8.27734H28.9766L30.5195 14.1855C30.6237 14.5762 30.7214 14.9635 30.8125 15.3477C30.9102 15.7253 30.9915 16.0833 31.0566 16.4219C31.1283 16.7539 31.1803 17.0436 31.2129 17.291H31.291C31.3301 17.1283 31.3724 16.9329 31.418 16.7051C31.4701 16.4772 31.5254 16.2363 31.584 15.9824C31.6491 15.722 31.7174 15.4648 31.7891 15.2109C31.8607 14.9505 31.9323 14.7064 32.0039 14.4785L33.9766 8.27734H35.7246L37.6289 14.4688C37.7266 14.7812 37.821 15.1068 37.9121 15.4453C38.0098 15.7839 38.0977 16.1126 38.1758 16.4316C38.2539 16.7441 38.3092 17.0241 38.3418 17.2715H38.4199C38.446 17.0501 38.4948 16.7767 38.5664 16.4512C38.638 16.1257 38.7194 15.7676 38.8105 15.377C38.9082 14.9863 39.0091 14.5892 39.1133 14.1855L40.6758 8.27734H42.3262L39.3672 18.9805H37.4824ZM48.4004 8.10156C49.3118 8.10156 50.0931 8.30339 50.7441 8.70703C51.3952 9.11068 51.8932 9.67708 52.2383 10.4062C52.5833 11.1289 52.7559 11.9753 52.7559 12.9453V13.9512H45.3633C45.3828 15.2077 45.6953 16.1647 46.3008 16.8223C46.9062 17.4798 47.7591 17.8086 48.8594 17.8086C49.5365 17.8086 50.1354 17.7467 50.6562 17.623C51.1771 17.4993 51.7174 17.3171 52.2773 17.0762V18.502C51.737 18.7428 51.1999 18.9186 50.666 19.0293C50.1387 19.14 49.5137 19.1953 48.791 19.1953C47.7624 19.1953 46.8639 18.987 46.0957 18.5703C45.334 18.1471 44.7415 17.5286 44.3184 16.7148C43.8952 15.901 43.6836 14.9049 43.6836 13.7266C43.6836 12.5742 43.8757 11.5781 44.2598 10.7383C44.6504 9.89193 45.1973 9.24089 45.9004 8.78516C46.61 8.32943 47.4434 8.10156 48.4004 8.10156ZM48.3809 9.42969C47.515 9.42969 46.8249 9.71289 46.3105 10.2793C45.7962 10.8457 45.4902 11.6367 45.3926 12.6523H51.0566C51.0501 12.0143 50.9492 11.4544 50.7539 10.9727C50.5651 10.4844 50.2754 10.1068 49.8848 9.83984C49.4941 9.56641 48.9928 9.42969 48.3809 9.42969ZM60.373 8.10156C60.5879 8.10156 60.8125 8.11458 61.0469 8.14062C61.2812 8.16016 61.4896 8.18945 61.6719 8.22852L61.4668 9.73242C61.291 9.68685 61.0957 9.65104 60.8809 9.625C60.666 9.59896 60.4642 9.58594 60.2754 9.58594C59.8457 9.58594 59.4388 9.67383 59.0547 9.84961C58.6771 10.0189 58.3451 10.2663 58.0586 10.5918C57.7721 10.9108 57.5475 11.2982 57.3848 11.7539C57.222 12.2031 57.1406 12.7044 57.1406 13.2578V19H55.5098V8.29688H56.8574L57.0332 10.2695H57.1016C57.3229 9.8724 57.5898 9.51107 57.9023 9.18555C58.2148 8.85352 58.5762 8.58984 58.9863 8.39453C59.403 8.19922 59.8652 8.10156 60.373 8.10156ZM67.8145 8.10156C68.7259 8.10156 69.5072 8.30339 70.1582 8.70703C70.8092 9.11068 71.3073 9.67708 71.6523 10.4062C71.9974 11.1289 72.1699 11.9753 72.1699 12.9453V13.9512H64.7773C64.7969 15.2077 65.1094 16.1647 65.7148 16.8223C66.3203 17.4798 67.1732 17.8086 68.2734 17.8086C68.9505 17.8086 69.5495 17.7467 70.0703 17.623C70.5911 17.4993 71.1315 17.3171 71.6914 17.0762V18.502C71.151 18.7428 70.6139 18.9186 70.0801 19.0293C69.5527 19.14 68.9277 19.1953 68.2051 19.1953C67.1764 19.1953 66.278 18.987 65.5098 18.5703C64.748 18.1471 64.1556 17.5286 63.7324 16.7148C63.3092 15.901 63.0977 14.9049 63.0977 13.7266C63.0977 12.5742 63.2897 11.5781 63.6738 10.7383C64.0645 9.89193 64.6113 9.24089 65.3145 8.78516C66.0241 8.32943 66.8574 8.10156 67.8145 8.10156ZM67.7949 9.42969C66.929 9.42969 66.2389 9.71289 65.7246 10.2793C65.2103 10.8457 64.9043 11.6367 64.8066 12.6523H70.4707C70.4642 12.0143 70.3633 11.4544 70.168 10.9727C69.9792 10.4844 69.6895 10.1068 69.2988 9.83984C68.9082 9.56641 68.4069 9.42969 67.7949 9.42969ZM78.7324 19.1953C77.3783 19.1953 76.304 18.7331 75.5098 17.8086C74.722 16.8841 74.3281 15.5104 74.3281 13.6875C74.3281 11.8451 74.7318 10.4551 75.5391 9.51758C76.3464 8.57357 77.4206 8.10156 78.7617 8.10156C79.3281 8.10156 79.8229 8.17643 80.2461 8.32617C80.6693 8.47591 81.0339 8.67773 81.3398 8.93164C81.6458 9.17904 81.903 9.46224 82.1113 9.78125H82.2285C82.2025 9.57943 82.1764 9.30273 82.1504 8.95117C82.1243 8.59961 82.1113 8.31315 82.1113 8.0918V3.80469H83.7324V19H82.4238L82.1797 17.4766H82.1113C81.9095 17.7956 81.6523 18.0853 81.3398 18.3457C81.0339 18.6061 80.666 18.8145 80.2363 18.9707C79.8132 19.1204 79.3118 19.1953 78.7324 19.1953ZM78.9863 17.8477C80.1322 17.8477 80.9427 17.5221 81.418 16.8711C81.8932 16.2201 82.1309 15.2533 82.1309 13.9707V13.6777C82.1309 12.3171 81.903 11.2721 81.4473 10.543C80.998 9.8138 80.1777 9.44922 78.9863 9.44922C77.9902 9.44922 77.2448 9.83333 76.75 10.6016C76.2552 11.3633 76.0078 12.4049 76.0078 13.7266C76.0078 15.0417 76.252 16.0573 76.7402 16.7734C77.235 17.4896 77.9837 17.8477 78.9863 17.8477ZM93.9863 3.80469V7.60352C93.9863 8.03971 93.9733 8.46289 93.9473 8.87305C93.9277 9.2832 93.9115 9.60221 93.8984 9.83008H93.9863C94.2793 9.34831 94.7025 8.94141 95.2559 8.60938C95.8092 8.27734 96.5156 8.11133 97.375 8.11133C98.7161 8.11133 99.7839 8.57682 100.578 9.50781C101.379 10.4323 101.779 11.8092 101.779 13.6387C101.779 14.8431 101.597 15.8587 101.232 16.6855C100.868 17.5124 100.354 18.1374 99.6895 18.5605C99.0254 18.9837 98.2409 19.1953 97.3359 19.1953C96.4896 19.1953 95.793 19.0391 95.2461 18.7266C94.7057 18.4076 94.2891 18.0202 93.9961 17.5645H93.8691L93.5371 19H92.3652V3.80469H93.9863ZM97.1113 9.46875C96.3366 9.46875 95.7214 9.62174 95.2656 9.92773C94.8099 10.2272 94.4811 10.6829 94.2793 11.2949C94.084 11.9004 93.9863 12.6686 93.9863 13.5996V13.6875C93.9863 15.0352 94.2109 16.0671 94.6602 16.7832C95.1094 17.4928 95.9264 17.8477 97.1113 17.8477C98.1074 17.8477 98.8529 17.4831 99.3477 16.7539C99.849 16.0247 100.1 14.9831 100.1 13.6289C100.1 12.2487 99.8522 11.2103 99.3574 10.5137C98.8691 9.81706 98.1204 9.46875 97.1113 9.46875ZM102.922 8.29688H104.66L107.023 14.5078C107.16 14.8724 107.287 15.224 107.404 15.5625C107.521 15.8945 107.626 16.2135 107.717 16.5195C107.808 16.8255 107.88 17.1217 107.932 17.4082H108C108.091 17.0827 108.221 16.6562 108.391 16.1289C108.56 15.5951 108.742 15.0514 108.938 14.498L111.174 8.29688H112.922L108.264 20.5723C108.016 21.2298 107.727 21.8027 107.395 22.291C107.069 22.7793 106.672 23.1536 106.203 23.4141C105.734 23.681 105.168 23.8145 104.504 23.8145C104.198 23.8145 103.928 23.7949 103.693 23.7559C103.459 23.7233 103.257 23.6842 103.088 23.6387V22.3398C103.231 22.3724 103.404 22.4017 103.605 22.4277C103.814 22.4538 104.029 22.4668 104.25 22.4668C104.654 22.4668 105.002 22.3887 105.295 22.2324C105.594 22.0827 105.852 21.8613 106.066 21.5684C106.281 21.2754 106.467 20.9271 106.623 20.5234L107.209 19.0195L102.922 8.29688Z" fill="#482E4D"/>
</g>
<defs>
<clipPath id="clip0_3271_3923">
<rect width="237" height="195" fill="white"/>
</clipPath>
</defs>
</svg>
