<svg width="86" height="95" viewBox="0 0 86 95" fill="none" xmlns="http://www.w3.org/2000/svg">
<g clip-path="url(#clip0_4220_4160)">
<path d="M23.6584 61.029C23.6488 63.3715 21.5145 65.0299 19.4067 65.0722C17.2881 65.1145 15.0199 63.409 15.0175 61.0918L14.9922 28.6387C14.991 26.7857 16.2747 25.2845 17.8564 24.6982C19.496 24.0902 21.6207 24.5072 22.6872 26.0484L38.298 48.6032L38.3004 14.3467L32.4839 20.1461C30.6549 21.7828 27.9656 21.6232 26.3803 19.8585C24.7588 18.0538 24.9578 15.4962 26.7 13.758L39.2572 1.21866C40.851 -0.373234 43.7067 -0.425209 45.315 1.1824L58.1545 14.0155C59.8436 15.7041 59.7036 18.4455 58.093 20.0398C56.4087 21.7066 53.7399 21.7296 52.0376 20.0361L46.9739 14.9994L46.9775 60.5902C46.9775 62.6233 45.8241 64.2672 43.9999 64.8824C42.0478 65.5399 40.1403 64.689 38.9881 63.0258L23.7356 41.0052L23.6584 61.029Z" fill="#24201D"/>
<path d="M79.7623 58.7802C76.027 62.624 70.8583 64.894 65.5353 65.056C62.0304 65.1623 58.756 65.1333 55.2753 65.0487C53.0867 64.9955 51.2227 63.0313 51.2227 60.8302V28.7977C51.2251 26.0213 53.6815 24.4318 56.2332 24.4523L65.0443 24.5237C72.6717 24.5853 79.7261 28.8243 83.2297 35.6319C84.8561 38.7915 85.5474 42.2992 85.3652 45.8589C85.1179 50.7156 83.2165 55.2242 79.7623 58.779V58.7802ZM75.075 50.9453C77.8705 46.4959 77.33 40.7968 73.7937 36.9929C71.5617 34.6443 68.6324 33.2035 65.3652 33.0271C63.4891 32.9255 61.6588 32.9932 59.7695 32.9872V56.4897L65.5172 56.4595C69.454 56.4389 72.8732 54.2294 75.075 50.944V50.9453Z" fill="#24201D"/>
<path d="M4.03268 65.0559C1.67639 64.871 0.00660666 62.9696 0.00781315 60.7093L0.0222911 28.7155C0.0222911 25.9427 2.68985 23.8999 5.33931 24.5913C6.99462 25.024 8.52566 26.5531 8.52566 28.3952L8.52325 61.0852C8.52325 63.4157 6.27917 65.2324 4.03388 65.0559H4.03268Z" fill="#24201D"/>
<path d="M12.083 79.932L12.0106 86.3225C12.001 87.2013 11.107 87.7065 10.3783 87.7053C9.61335 87.7041 8.73984 87.1203 8.73502 86.2101L8.69641 79.1076C8.69279 78.4005 8.28258 77.5991 7.73242 77.2087C6.42337 76.2804 4.62208 76.7796 3.87888 78.1624C3.51331 78.8417 3.33837 79.6189 3.33958 80.4082L3.34561 85.9623C3.34561 86.9317 2.73392 87.6509 1.81095 87.7174C0.974847 87.7778 0.00844546 87.1566 0.00723896 86.1533L0 75.9988C0 75.027 0.809557 74.2933 1.69271 74.3549C2.66997 74.4226 3.24547 75.259 3.22978 76.4194C4.09846 74.7864 5.76342 73.8738 7.66244 73.9717C9.35998 74.0588 10.7318 74.8759 11.5377 76.5004C12.4764 74.7743 14.1208 73.9512 15.986 73.9669C19.1217 73.9935 20.8349 76.3421 20.8241 79.33L20.8012 86.3117C20.7988 87.1868 19.8951 87.7222 19.1784 87.721C18.4521 87.721 17.5497 87.1977 17.5412 86.3286L17.4773 79.6455C17.4688 78.7704 17.1732 77.7938 16.494 77.2474C15.4793 76.4303 13.9061 76.6261 13.0325 77.5677C12.4691 78.1757 12.0915 79.0303 12.0806 79.932H12.083Z" fill="#24201D"/>
<path d="M62.5381 85.0276C63.8955 85.6331 65.5845 85.5304 66.7548 84.6686C67.4498 84.1573 68.2376 83.9518 68.8964 84.5948C69.4453 85.1303 69.531 86.1879 68.8155 86.7331C66.7199 88.331 63.7446 88.5244 61.3292 87.6445C57.8244 86.3668 56.5214 82.789 57.2778 79.2813C57.7954 76.8807 59.5304 75.0144 61.8685 74.3182C65.2202 73.3198 68.9036 74.5104 70.1065 78.0254C70.4612 79.0613 70.6108 80.1407 70.606 81.2539C70.6036 81.7434 70.2392 82.129 69.7337 82.1302L60.4533 82.1447C60.5824 83.49 61.3329 84.4897 62.5369 85.0276H62.5381ZM67.2712 79.7188C67.2604 78.4086 66.7729 77.4827 65.8077 76.8747C64.2562 76.1253 62.3584 76.4698 61.2267 77.7812C60.7417 78.3433 60.4292 79.0178 60.5088 79.7345L67.27 79.7188H67.2712Z" fill="#24201D"/>
<path d="M35.3979 86.8953C33.2854 88.2854 30.7204 88.4884 28.4196 87.6314C25.5759 86.5738 23.8832 83.9074 23.9266 80.8928C23.9664 78.1453 25.4456 75.7472 27.9671 74.6437C30.1666 73.6815 32.658 73.7347 34.8031 74.8298C36.8783 75.8886 38.1801 77.848 38.425 80.1663C38.7037 82.805 37.677 85.3941 35.3979 86.8941V86.8953ZM34.0117 84.0657C35.4462 82.313 35.4052 79.8037 34.1263 78.0813C33.3759 77.0708 32.2068 76.6707 31.0087 76.7142C29.906 76.7541 28.7719 77.2642 28.1083 78.3061C27.0574 79.9536 27.0394 82.1511 28.171 83.8022C29.4897 85.7277 32.4855 85.9283 34.0117 84.0645V84.0657Z" fill="#24201D"/>
<path d="M74.7384 94.4394C73.8709 94.4539 73.0505 93.9716 73.118 93.0808L73.2375 91.5203L74.6865 91.5228C75.4236 91.524 76.0957 91.1589 76.425 90.4748C76.8606 89.5707 77.2141 88.6653 77.5362 87.7056L72.8128 76.6143C72.4303 75.7174 73.0094 74.7939 73.7442 74.4857C74.5936 74.1279 75.5877 74.5256 75.9388 75.437L79.2748 84.1L82.2053 75.5458C82.5118 74.6525 83.3793 74.1654 84.2142 74.4362C85.0285 74.6997 85.6113 75.5977 85.2517 76.5248L79.5993 91.0985C78.7113 93.389 77.2394 94.3983 74.7372 94.4406L74.7384 94.4394Z" fill="#24201D"/>
<path d="M45.6304 78.1595C45.2033 78.8691 45.0392 79.633 45.0392 80.415L45.0332 87.7701L41.6719 87.7677L41.6791 75.8436C41.6791 74.8077 42.5454 74.2928 43.4635 74.3242L44.8546 74.3702L44.9258 76.4456C45.8729 74.6687 47.7321 73.7815 49.7361 74.0015C51.4758 74.1925 52.914 75.226 53.5402 76.8843C53.779 77.5165 53.9914 78.2574 53.9914 78.9621V87.7689L50.6337 87.7725L50.6023 79.5641C50.5987 78.6612 50.2549 77.641 49.5129 77.1623C48.2075 76.3211 46.4387 76.8178 45.6316 78.1583L45.6304 78.1595Z" fill="#24201D"/>
<path d="M85.3967 25.8097C84.7114 25.2743 85.2652 24.7037 85.0335 24.0861L84.2143 25.8545L83.3505 24.0522L83.2998 25.4399C83.2974 25.5063 83.2045 25.7396 83.1755 25.6973C83.1466 25.655 83.0319 25.4979 83.0319 25.4326L83.0078 23.3657C83.0706 23.3016 83.1984 23.1892 83.2479 23.2267C83.2974 23.2641 83.4482 23.4164 83.482 23.495L84.2083 25.1884L84.9153 23.5301C84.9756 23.3886 85.1879 23.2448 85.4087 23.1892L85.3991 25.8097H85.3967Z" fill="#24201D"/>
<path d="M81.8623 23.5796L81.7066 25.8387C81.4472 25.0676 81.5739 24.4124 81.5341 23.6219L80.7812 23.3669C81.44 23.1928 82.0203 23.2085 82.667 23.3778L81.8623 23.5796Z" fill="#24201D"/>
</g>
<defs>
<clipPath id="clip0_4220_4160">
<rect width="85.4101" height="94.4392" fill="white"/>
</clipPath>
</defs>
</svg>
