<?xml version="1.0" encoding="UTF-8"?><svg id="Layer_1" xmlns="http://www.w3.org/2000/svg" viewBox="0 0 640 306"><defs><style>.cls-1{fill:#482e4d;}</style></defs><path class="cls-1" d="m185.47,78.94l-96.05,131.64c6.45,0,23.89.24,30.34.24,22.22,0,46.83-.24,61.4-.72-1.2,9.08-1.67,19.11-1.91,29.87-14.57-.96-42.77-1.2-66.18-1.2-27.95,0-53.52.24-71.44,1.2l-3.34-15.05,95.8-130.93c-7.17-.24-20.07-.24-28.19-.24-22.7,0-42.29.24-59.49.48,1.19-8.36,1.91-19.83,2.39-29.63,23.89.72,34.4,1.2,66.18,1.2s50.17-.48,66.9-1.2l3.59,14.34Z"/><path class="cls-1" d="m279.76,150.46l-73.59,2.15c1.67,20.79,13.14,31.77,34.88,31.77,19.59,0,34.16-7.41,46.83-16.01l-.96,28.91c-14.57,9.32-30.58,14.81-49.69,14.81-44.2,0-65.7-29.39-65.7-64.03,0-39.9,26.76-69.76,66.18-69.76s55.19,27.71,55.19,62.12l-13.14,10.03Zm-18.64-18.64c-1.91-17.92-9.08-27.71-24.85-27.71s-27.24,12.42-29.62,29.15l54.47-1.43Z"/><path class="cls-1" d="m387.53,67.4c-3.82-1.2-7.89-1.91-11.95-1.91-14.57,0-21.74,9.08-21.74,27.24v10.03h31.78c-.72,5.73-.96,16.96-.96,26.52h-30.82v73.83c0,9.32.24,19.11,1.2,25.8h-38.23c1.2-11.47,1.67-27.95,1.67-43.24v-56.39h-22.46l6.45-26.52h16.01v-8.12c0-35.84,17.92-58.53,50.89-58.53,6.93,0,11.71.95,15.77,2.15l2.39,29.15Z"/><path class="cls-1" d="m465.7,106.1c-3.82-1.2-7.88-1.91-11.95-1.91-14.57,0-21.74,9.08-21.74,27.24v10.03h31.77c-.72,5.73-.95,16.96-.95,26.52h-30.82v73.83c0,9.32.24,19.11,1.19,25.8h-38.23c1.2-11.47,1.67-27.95,1.67-43.24v-56.39h-22.46l6.45-26.52h16.01v-8.12c0-35.84,17.92-58.53,50.89-58.53,6.93,0,11.71.95,15.77,2.15l2.39,29.15Z"/><path class="cls-1" d="m537.58,225.7c-38.46,0-62.84-28.91-62.84-63.79,0-39.9,26.28-70.24,66.18-70.24s63.07,28.91,63.07,63.79c0,39.9-26.52,70.24-66.42,70.24Zm2.39-106.56c-18.64,0-30.34,15.53-30.34,38.71,0,27.71,11.71,40.38,29.15,40.38,19.11,0,30.34-15.29,30.34-38.94,0-27.72-12.9-40.14-29.15-40.14Z"/></svg>