<svg width="342" height="427" viewBox="0 0 342 427" fill="none" xmlns="http://www.w3.org/2000/svg">
<g clip-path="url(#clip0_4467_6392)">
<path d="M0 16C0 7.16345 7.16344 0 16 0H325.538C334.375 0 341.538 7.16344 341.538 16V410.923C341.538 419.76 334.375 426.923 325.538 426.923H16C7.16347 426.923 0 419.76 0 410.923V16Z" fill="url(#paint0_linear_4467_6392)"/>
<path d="M92.3977 60.3589C92.3977 61.1619 92.197 61.8506 91.7955 62.425C91.4002 62.9932 90.8412 63.4287 90.1186 63.7313C89.3959 64.034 88.5374 64.1853 87.543 64.1853C87.0427 64.1853 86.564 64.1575 86.1069 64.1019C85.656 64.0525 85.236 63.9784 84.8469 63.8796C84.4578 63.7807 84.1057 63.6572 83.7907 63.509V61.7116C84.3034 61.9216 84.8963 62.1192 85.5696 62.3045C86.2428 62.4837 86.9377 62.5732 87.6541 62.5732C88.278 62.5732 88.7999 62.4898 89.2199 62.3231C89.6461 62.1501 89.9673 61.9092 90.1834 61.6004C90.3996 61.2916 90.5077 60.921 90.5077 60.4886C90.5077 60.0563 90.4027 59.6949 90.1927 59.4046C89.9827 59.1082 89.6492 58.8364 89.1921 58.5893C88.7412 58.3423 88.1483 58.0798 87.4133 57.8018C86.9006 57.6165 86.4343 57.4065 86.0143 57.1718C85.5943 56.9309 85.2299 56.6561 84.921 56.3473C84.6184 56.0384 84.3837 55.6771 84.2169 55.2633C84.0501 54.8433 83.9667 54.3615 83.9667 53.818C83.9667 53.0706 84.149 52.4313 84.5134 51.9001C84.884 51.369 85.3997 50.9644 86.0606 50.6864C86.7215 50.4023 87.4874 50.2603 88.3583 50.2603C89.0748 50.2603 89.7418 50.3313 90.3595 50.4734C90.9833 50.6154 91.5763 50.81 92.1383 51.057L91.5361 52.6321C91.0111 52.4159 90.483 52.2399 89.9518 52.104C89.4206 51.9681 88.8709 51.9001 88.3027 51.9001C87.7777 51.9001 87.333 51.9773 86.9685 52.1318C86.6103 52.2862 86.3355 52.5054 86.144 52.7896C85.9587 53.0737 85.866 53.4103 85.866 53.7994C85.866 54.238 85.9649 54.6024 86.1625 54.8927C86.3602 55.183 86.6721 55.4455 87.0983 55.6802C87.5244 55.9149 88.0803 56.165 88.7659 56.4306C89.538 56.7271 90.1927 57.0421 90.7301 57.3757C91.2736 57.7092 91.6874 58.1107 91.9716 58.5801C92.2557 59.0495 92.3977 59.6424 92.3977 60.3589ZM98.4666 53.6049C99.356 53.6049 100.119 53.7963 100.755 54.1793C101.391 54.5561 101.879 55.0903 102.219 55.7821C102.559 56.4739 102.728 57.2892 102.728 58.228V59.2842H95.7983C95.8168 60.3775 96.0979 61.2175 96.6414 61.8042C97.1849 62.3848 97.9477 62.6751 98.9298 62.6751C99.5783 62.6751 100.156 62.6134 100.662 62.4898C101.169 62.3663 101.694 62.1841 102.237 61.9432V63.509C101.725 63.7437 101.209 63.9135 100.69 64.0185C100.177 64.1297 99.5629 64.1853 98.8464 64.1853C97.8582 64.1853 96.9904 63.9876 96.243 63.5923C95.5018 63.197 94.9243 62.6134 94.5105 61.8413C94.0967 61.0631 93.8897 60.1057 93.8897 58.9692C93.8897 57.8451 94.0781 56.8846 94.4549 56.0878C94.8317 55.2849 95.3629 54.6703 96.0484 54.2441C96.734 53.818 97.5401 53.6049 98.4666 53.6049ZM98.4573 55.0502C97.7038 55.0502 97.0985 55.2972 96.6414 55.7914C96.1843 56.2793 95.9157 56.9804 95.8354 57.8945H100.857C100.851 57.3324 100.761 56.8383 100.588 56.4121C100.415 55.9859 100.153 55.6524 99.8007 55.4115C99.4548 55.1706 99.007 55.0502 98.4573 55.0502ZM109.965 53.6049C111.144 53.6049 112.049 53.9013 112.679 54.4943C113.315 55.0872 113.633 56.0384 113.633 57.3479V64H111.79V57.598C111.79 56.7827 111.611 56.1712 111.252 55.7636C110.894 55.3497 110.344 55.1428 109.603 55.1428C108.547 55.1428 107.806 55.4547 107.38 56.0786C106.96 56.7024 106.75 57.6073 106.75 58.7932V64H104.887V53.7902H106.361L106.629 55.2262H106.731C106.947 54.868 107.222 54.5684 107.556 54.3275C107.889 54.0866 108.26 53.9075 108.668 53.7902C109.081 53.6666 109.514 53.6049 109.965 53.6049ZM119.897 64.1853C118.649 64.1853 117.652 63.7437 116.904 62.8604C116.163 61.9772 115.793 60.6678 115.793 58.9321C115.793 57.178 116.169 55.8531 116.923 54.9575C117.683 54.0558 118.689 53.6049 119.943 53.6049C120.468 53.6049 120.928 53.6759 121.324 53.818C121.719 53.96 122.059 54.1484 122.343 54.3831C122.633 54.6178 122.874 54.8834 123.065 55.1799H123.177C123.146 54.9884 123.115 54.7197 123.084 54.3738C123.053 54.028 123.038 53.7253 123.038 53.4659V49.5839H124.9V64H123.427L123.121 62.5825H123.038C122.852 62.879 122.615 63.1507 122.324 63.3978C122.04 63.6387 121.697 63.8301 121.296 63.9722C120.901 64.1143 120.434 64.1853 119.897 64.1853ZM120.332 62.6659C121.339 62.6659 122.049 62.3756 122.463 61.795C122.883 61.2144 123.096 60.3527 123.102 59.2101V58.9229C123.102 57.7061 122.902 56.7734 122.5 56.1249C122.105 55.4702 121.376 55.1428 120.314 55.1428C119.449 55.1428 118.797 55.4825 118.359 56.162C117.92 56.8352 117.701 57.771 117.701 58.9692C117.701 60.1551 117.92 61.0692 118.359 61.7116C118.797 62.3478 119.455 62.6659 120.332 62.6659ZM134.11 49.5839V53.1231C134.11 53.5307 134.097 53.9291 134.073 54.3183C134.054 54.7074 134.036 55.0069 134.017 55.2169H134.11C134.388 54.7722 134.78 54.3955 135.286 54.0866C135.799 53.7716 136.457 53.6141 137.26 53.6141C138.501 53.6141 139.496 54.0588 140.243 54.9483C140.991 55.8315 141.364 57.144 141.364 58.8858C141.364 60.0347 141.191 61.0044 140.845 61.795C140.506 62.5856 140.024 63.1816 139.4 63.5831C138.782 63.9846 138.054 64.1853 137.214 64.1853C136.417 64.1853 135.771 64.0401 135.277 63.7498C134.783 63.4534 134.397 63.1013 134.119 62.6937H133.98L133.628 64H132.248V49.5839H134.11ZM136.843 55.1428C136.17 55.1428 135.632 55.2756 135.231 55.5412C134.836 55.8068 134.551 56.2083 134.379 56.7456C134.206 57.283 134.116 57.9593 134.11 58.7746V58.9136C134.11 60.1242 134.307 61.0507 134.703 61.6931C135.098 62.3354 135.815 62.6566 136.852 62.6566C137.705 62.6566 138.35 62.3292 138.789 61.6745C139.233 61.0198 139.456 60.0841 139.456 58.8673C139.456 57.632 139.236 56.7024 138.798 56.0786C138.359 55.4547 137.708 55.1428 136.843 55.1428ZM142.013 53.7902H144.024L146.192 59.6733C146.303 59.976 146.405 60.2725 146.497 60.5628C146.596 60.8469 146.679 61.1248 146.747 61.3966C146.822 61.6622 146.88 61.9247 146.923 62.1841H146.988C147.062 61.8691 147.167 61.4861 147.303 61.0353C147.439 60.5844 147.587 60.1273 147.748 59.6641L149.823 53.7902H151.825L147.414 65.4453C147.174 66.0939 146.88 66.6497 146.534 67.113C146.195 67.5824 145.79 67.9406 145.321 68.1877C144.851 68.4409 144.295 68.5676 143.653 68.5676C143.356 68.5676 143.094 68.549 142.865 68.512C142.643 68.4811 142.452 68.444 142.291 68.4008V66.9184C142.427 66.9493 142.591 66.9771 142.782 67.0018C142.98 67.0265 143.184 67.0389 143.394 67.0389C143.783 67.0389 144.116 66.9617 144.394 66.8072C144.678 66.659 144.919 66.4459 145.117 66.168C145.321 65.89 145.49 65.5658 145.626 65.1952L146.09 63.9907L142.013 53.7902ZM100.365 73.4548L96.7893 87H94.7788L92.3051 78.3837C92.2371 78.1552 92.1692 77.9081 92.1013 77.6425C92.0333 77.3769 91.9654 77.1144 91.8974 76.855C91.8357 76.5894 91.7832 76.3516 91.7399 76.1416C91.6967 75.9316 91.6658 75.771 91.6473 75.6599C91.6349 75.771 91.6071 75.9316 91.5639 76.1416C91.5268 76.3455 91.4805 76.5771 91.4249 76.8365C91.3693 77.0959 91.3076 77.3615 91.2396 77.6333C91.1717 77.8989 91.1037 78.1521 91.0358 78.393L88.6177 87H86.6165L83.0588 73.4548H84.9951L87.0612 81.6727C87.1291 81.9445 87.194 82.2224 87.2558 82.5066C87.3237 82.7845 87.3855 83.0655 87.4411 83.3497C87.4966 83.6276 87.5461 83.8994 87.5893 84.165C87.6325 84.4244 87.6727 84.6714 87.7097 84.9061C87.7406 84.6653 87.7808 84.4089 87.8302 84.1372C87.8796 83.8592 87.9321 83.5782 87.9877 83.2941C88.0494 83.0099 88.1143 82.7289 88.1822 82.451C88.2502 82.173 88.3212 81.9074 88.3953 81.6542L90.7115 73.4548H92.6108L95.0104 81.7005C95.0845 81.9599 95.1556 82.2317 95.2235 82.5158C95.2976 82.7999 95.3625 83.0841 95.4181 83.3682C95.4798 83.6523 95.5323 83.9241 95.5756 84.1835C95.625 84.4429 95.6682 84.6838 95.7053 84.9061C95.7485 84.5973 95.801 84.2638 95.8628 83.9055C95.9307 83.5473 96.0079 83.1767 96.0944 82.7938C96.1809 82.4108 96.2673 82.0341 96.3538 81.6635L98.4199 73.4548H100.365ZM103.646 72.5839V76.5493C103.646 76.8643 103.636 77.1731 103.618 77.4758C103.599 77.7784 103.578 78.0317 103.553 78.2355H103.664C103.88 77.8772 104.146 77.5808 104.461 77.3461C104.782 77.1052 105.143 76.926 105.545 76.8087C105.953 76.6852 106.382 76.6234 106.833 76.6234C107.629 76.6234 108.303 76.7531 108.852 77.0125C109.402 77.2719 109.819 77.6765 110.103 78.2262C110.387 78.7697 110.529 79.477 110.529 80.3479V87H108.686V80.598C108.686 79.7827 108.507 79.1712 108.148 78.7636C107.79 78.3497 107.24 78.1428 106.499 78.1428C105.795 78.1428 105.233 78.2849 104.813 78.569C104.393 78.847 104.093 79.2577 103.914 79.8012C103.735 80.3448 103.646 81.0118 103.646 81.8024V87H101.783V72.5839H103.646ZM117.173 76.6141C118.433 76.6141 119.375 76.8952 119.998 77.4572C120.622 78.0131 120.934 78.8933 120.934 80.0977V87H119.6L119.239 85.5176H119.165C118.88 85.8882 118.584 86.197 118.275 86.4441C117.966 86.6912 117.608 86.8765 117.2 87C116.799 87.1235 116.308 87.1853 115.727 87.1853C115.11 87.1853 114.56 87.0741 114.078 86.8518C113.596 86.6294 113.217 86.2959 112.939 85.8512C112.667 85.4003 112.531 84.8289 112.531 84.1372C112.531 83.0995 112.929 82.312 113.726 81.7746C114.523 81.2373 115.73 80.9439 117.349 80.8945L119.109 80.8204V80.2459C119.109 79.4492 118.93 78.8871 118.572 78.5597C118.22 78.2324 117.725 78.0687 117.089 78.0687C116.564 78.0687 116.061 78.1459 115.579 78.3003C115.097 78.4486 114.634 78.6277 114.189 78.8377L113.596 77.485C114.078 77.238 114.625 77.031 115.236 76.8643C115.854 76.6975 116.499 76.6141 117.173 76.6141ZM119.09 82.0433L117.664 82.1082C116.484 82.1514 115.653 82.3491 115.171 82.7011C114.696 83.047 114.458 83.5319 114.458 84.1557C114.458 84.6992 114.622 85.0976 114.949 85.3509C115.276 85.6041 115.709 85.7307 116.246 85.7307C117.074 85.7307 117.753 85.4991 118.284 85.0359C118.822 84.5664 119.09 83.8747 119.09 82.9605V82.0433ZM127.225 85.6751C127.491 85.6751 127.76 85.6535 128.031 85.6103C128.303 85.5609 128.538 85.4991 128.735 85.425V86.8518C128.525 86.9444 128.244 87.0216 127.892 87.0834C127.547 87.1513 127.191 87.1853 126.827 87.1853C126.271 87.1853 125.768 87.0896 125.317 86.8981C124.866 86.7066 124.505 86.3793 124.233 85.916C123.967 85.4528 123.834 84.8104 123.834 83.9889V78.2262H122.417V77.3646L123.899 76.679L124.557 74.474H125.706V76.7902H128.661V78.2262H125.706V83.9611C125.706 84.5356 125.842 84.9648 126.114 85.2489C126.391 85.5331 126.762 85.6751 127.225 85.6751ZM137.158 84.1464C137.158 84.8073 136.994 85.3663 136.667 85.8234C136.345 86.2743 135.876 86.614 135.258 86.8425C134.641 87.071 133.899 87.1853 133.035 87.1853C132.318 87.1853 131.701 87.1297 131.182 87.0185C130.663 86.9135 130.194 86.7591 129.774 86.5553V84.9061C130.224 85.1223 130.746 85.3138 131.339 85.4806C131.932 85.6473 132.513 85.7307 133.081 85.7307C133.878 85.7307 134.452 85.6041 134.804 85.3509C135.163 85.0976 135.342 84.7548 135.342 84.3225C135.342 84.0692 135.271 83.8469 135.129 83.6554C134.987 83.4577 134.736 83.2632 134.378 83.0717C134.026 82.8741 133.52 82.6486 132.859 82.3954C132.21 82.1421 131.654 81.8889 131.191 81.6357C130.734 81.3824 130.385 81.0767 130.144 80.7184C129.903 80.3602 129.783 79.897 129.783 79.3287C129.783 78.4455 130.135 77.7722 130.839 77.309C131.549 76.8396 132.485 76.6049 133.646 76.6049C134.264 76.6049 134.844 76.6666 135.388 76.7902C135.938 76.9137 136.463 77.0866 136.963 77.309L136.361 78.745C135.916 78.5536 135.459 78.3961 134.99 78.2725C134.52 78.1428 134.042 78.078 133.554 78.078C132.917 78.078 132.429 78.1799 132.09 78.3837C131.756 78.5875 131.589 78.8686 131.589 79.2268C131.589 79.5048 131.667 79.7364 131.821 79.9217C131.982 80.107 132.247 80.2892 132.618 80.4683C132.988 80.6412 133.489 80.8482 134.119 81.089C134.743 81.3238 135.28 81.5677 135.731 81.821C136.188 82.0742 136.54 82.383 136.787 82.7474C137.034 83.1119 137.158 83.5782 137.158 84.1464ZM147.877 87L146.376 82.9698H141.068L139.585 87H137.612L142.782 73.3992H144.727L149.869 87H147.877ZM145.848 81.3207L144.422 77.3275C144.378 77.1916 144.31 76.9878 144.218 76.716C144.131 76.4443 144.042 76.1632 143.949 75.8729C143.863 75.5826 143.792 75.3418 143.736 75.1503C143.674 75.4035 143.603 75.6722 143.523 75.9563C143.443 76.2343 143.362 76.4968 143.282 76.7438C143.208 76.9847 143.146 77.1793 143.097 77.3275L141.651 81.3207H145.848ZM156.123 76.6049C157.365 76.6049 158.356 77.0465 159.097 77.9297C159.845 78.8068 160.218 80.1193 160.218 81.8673C160.218 83.0285 160.046 84.0044 159.7 84.795C159.36 85.5794 158.878 86.1754 158.254 86.5831C157.637 86.9846 156.911 87.1853 156.077 87.1853C155.552 87.1853 155.092 87.1174 154.697 86.9815C154.301 86.8394 153.962 86.6541 153.678 86.4256C153.4 86.1909 153.165 85.9407 152.973 85.6751H152.853C152.878 85.916 152.902 86.197 152.927 86.5182C152.958 86.8332 152.973 87.1174 152.973 87.3706V91.5398H151.102V76.7902H152.631L152.881 78.254H152.973C153.165 77.9514 153.4 77.6765 153.678 77.4294C153.962 77.1762 154.304 76.9755 154.706 76.8272C155.107 76.679 155.58 76.6049 156.123 76.6049ZM155.697 78.1428C155.043 78.1428 154.518 78.2725 154.122 78.532C153.733 78.7852 153.446 79.165 153.261 79.6715C153.081 80.178 152.986 80.8142 152.973 81.5801V81.8766C152.973 82.6919 153.06 83.3805 153.233 83.9426C153.406 84.4985 153.693 84.9247 154.094 85.2212C154.496 85.5115 155.036 85.6566 155.716 85.6566C156.296 85.6566 156.778 85.4991 157.161 85.1841C157.55 84.8691 157.837 84.4244 158.023 83.85C158.214 83.2755 158.31 82.6085 158.31 81.8488C158.31 80.6937 158.097 79.7889 157.671 79.1342C157.244 78.4733 156.587 78.1428 155.697 78.1428ZM167.455 76.6049C168.696 76.6049 169.687 77.0465 170.429 77.9297C171.176 78.8068 171.55 80.1193 171.55 81.8673C171.55 83.0285 171.377 84.0044 171.031 84.795C170.691 85.5794 170.209 86.1754 169.586 86.5831C168.968 86.9846 168.242 87.1853 167.408 87.1853C166.883 87.1853 166.423 87.1174 166.028 86.9815C165.633 86.8394 165.293 86.6541 165.009 86.4256C164.731 86.1909 164.496 85.9407 164.305 85.6751H164.184C164.209 85.916 164.234 86.197 164.258 86.5182C164.289 86.8332 164.305 87.1174 164.305 87.3706V91.5398H162.433V76.7902H163.962L164.212 78.254H164.305C164.496 77.9514 164.731 77.6765 165.009 77.4294C165.293 77.1762 165.636 76.9755 166.037 76.8272C166.439 76.679 166.911 76.6049 167.455 76.6049ZM167.028 78.1428C166.374 78.1428 165.849 78.2725 165.453 78.532C165.064 78.7852 164.777 79.165 164.592 79.6715C164.413 80.178 164.317 80.8142 164.305 81.5801V81.8766C164.305 82.6919 164.391 83.3805 164.564 83.9426C164.737 84.4985 165.024 84.9247 165.426 85.2212C165.827 85.5115 166.368 85.6566 167.047 85.6566C167.628 85.6566 168.109 85.4991 168.492 85.1841C168.881 84.8691 169.169 84.4244 169.354 83.85C169.545 83.2755 169.641 82.6085 169.641 81.8488C169.641 80.6937 169.428 79.7889 169.002 79.1342C168.576 78.4733 167.918 78.1428 167.028 78.1428ZM179.184 73.4548L174.144 87H172.356L177.405 73.4548H179.184ZM188.542 83.3589C188.542 84.1619 188.341 84.8506 187.94 85.425C187.545 85.9932 186.986 86.4287 186.263 86.7313C185.54 87.034 184.682 87.1853 183.687 87.1853C183.187 87.1853 182.708 87.1575 182.251 87.1019C181.8 87.0525 181.38 86.9784 180.991 86.8796C180.602 86.7807 180.25 86.6572 179.935 86.509V84.7116C180.448 84.9216 181.041 85.1192 181.714 85.3045C182.387 85.4837 183.082 85.5732 183.799 85.5732C184.422 85.5732 184.944 85.4898 185.364 85.3231C185.791 85.1501 186.112 84.9092 186.328 84.6004C186.544 84.2916 186.652 83.921 186.652 83.4886C186.652 83.0563 186.547 82.6949 186.337 82.4046C186.127 82.1082 185.794 81.8364 185.337 81.5893C184.886 81.3423 184.293 81.0798 183.558 80.8018C183.045 80.6165 182.579 80.4065 182.159 80.1718C181.739 79.9309 181.374 79.6561 181.065 79.3473C180.763 79.0384 180.528 78.6771 180.361 78.2633C180.195 77.8433 180.111 77.3615 180.111 76.818C180.111 76.0706 180.293 75.4313 180.658 74.9001C181.028 74.369 181.544 73.9644 182.205 73.6864C182.866 73.4023 183.632 73.2603 184.503 73.2603C185.219 73.2603 185.886 73.3313 186.504 73.4734C187.128 73.6154 187.721 73.81 188.283 74.057L187.681 75.6321C187.156 75.4159 186.627 75.2399 186.096 75.104C185.565 74.9681 185.015 74.9001 184.447 74.9001C183.922 74.9001 183.477 74.9773 183.113 75.1318C182.755 75.2862 182.48 75.5054 182.288 75.7896C182.103 76.0737 182.01 76.4103 182.01 76.7994C182.01 77.238 182.109 77.6024 182.307 77.8927C182.505 78.183 182.816 78.4455 183.243 78.6802C183.669 78.9149 184.225 79.165 184.91 79.4306C185.682 79.7271 186.337 80.0421 186.874 80.3757C187.418 80.7092 187.832 81.1107 188.116 81.5801C188.4 82.0495 188.542 82.6424 188.542 83.3589ZM196.742 87L192.517 75.3541H192.443C192.462 75.6074 192.48 75.9347 192.499 76.3362C192.523 76.7315 192.542 77.1638 192.554 77.6333C192.573 78.0965 192.582 78.5536 192.582 79.0045V87H190.84V73.4548H193.573L197.585 84.4892H197.65L201.763 73.4548H204.478V87H202.644V78.8933C202.644 78.4856 202.65 78.0625 202.662 77.624C202.674 77.1793 202.69 76.7593 202.708 76.364C202.733 75.9625 202.755 75.6321 202.773 75.3726H202.69L198.363 87H196.742ZM215.466 83.3589C215.466 84.1619 215.266 84.8506 214.864 85.425C214.469 85.9932 213.91 86.4287 213.187 86.7313C212.465 87.034 211.606 87.1853 210.612 87.1853C210.111 87.1853 209.633 87.1575 209.176 87.1019C208.725 87.0525 208.305 86.9784 207.916 86.8796C207.527 86.7807 207.174 86.6572 206.859 86.509V84.7116C207.372 84.9216 207.965 85.1192 208.638 85.3045C209.312 85.4837 210.006 85.5732 210.723 85.5732C211.347 85.5732 211.869 85.4898 212.289 85.3231C212.715 85.1501 213.036 84.9092 213.252 84.6004C213.468 84.2916 213.576 83.921 213.576 83.4886C213.576 83.0563 213.471 82.6949 213.261 82.4046C213.051 82.1082 212.718 81.8364 212.261 81.5893C211.81 81.3423 211.217 81.0798 210.482 80.8018C209.969 80.6165 209.503 80.4065 209.083 80.1718C208.663 79.9309 208.299 79.6561 207.99 79.3473C207.687 79.0384 207.452 78.6771 207.286 78.2633C207.119 77.8433 207.035 77.3615 207.035 76.818C207.035 76.0706 207.218 75.4313 207.582 74.9001C207.953 74.369 208.468 73.9644 209.129 73.6864C209.79 73.4023 210.556 73.2603 211.427 73.2603C212.143 73.2603 212.811 73.3313 213.428 73.4734C214.052 73.6154 214.645 73.81 215.207 74.057L214.605 75.6321C214.08 75.4159 213.552 75.2399 213.021 75.104C212.489 74.9681 211.94 74.9001 211.371 74.9001C210.846 74.9001 210.402 74.9773 210.037 75.1318C209.679 75.2862 209.404 75.5054 209.213 75.7896C209.027 76.0737 208.935 76.4103 208.935 76.7994C208.935 77.238 209.034 77.6024 209.231 77.8927C209.429 78.183 209.741 78.4455 210.167 78.6802C210.593 78.9149 211.149 79.165 211.835 79.4306C212.607 79.7271 213.261 80.0421 213.799 80.3757C214.342 80.7092 214.756 81.1107 215.04 81.5801C215.324 82.0495 215.466 82.6424 215.466 83.3589Z" fill="#482E4D"/>
<path d="M63.1582 86H30.002V77.875L41.1582 66.5938C43.4707 64.1771 45.2624 62.2396 46.5332 60.7812C47.8249 59.3229 48.7311 58.0833 49.252 57.0625C49.7728 56.0417 50.0332 54.9792 50.0332 53.875C50.0332 52.5208 49.5957 51.5417 48.7207 50.9375C47.8457 50.3333 46.8145 50.0312 45.627 50.0312C44.1895 50.0312 42.7311 50.4479 41.252 51.2812C39.7936 52.0938 38.1374 53.3021 36.2832 54.9062L29.502 46.9688C30.877 45.7396 32.3353 44.5729 33.877 43.4688C35.4186 42.3438 37.2415 41.4271 39.3457 40.7188C41.4499 40.0104 44.0124 39.6562 47.0332 39.6562C50.1374 39.6562 52.8249 40.1979 55.0957 41.2812C57.3874 42.3646 59.1582 43.8542 60.4082 45.75C61.6582 47.625 62.2832 49.7604 62.2832 52.1562C62.2832 54.8021 61.7936 57.1667 60.8145 59.25C59.8561 61.3125 58.4082 63.3854 56.4707 65.4688C54.5332 67.5312 52.1165 69.875 49.2207 72.5L45.877 75.5V75.8125H63.1582V86Z" fill="#482E4D"/>
<rect x="81.0422" y="157" width="178.954" height="373" rx="13.0814" fill="black" fill-opacity="0.2"/>
<g clip-path="url(#clip1_4467_6392)">
<rect x="87.3221" y="163.017" width="166.516" height="360.785" rx="10.4651" fill="#482E4D"/>
<path d="M253.925 159.093H87.0625V525.634H253.925V159.093Z" fill="#FAF5F0"/>
<g clip-path="url(#clip2_4467_6392)">
<path d="M208.847 283.022C208.847 303.468 192.144 320.042 171.535 320.042C164.995 320.042 158.852 318.369 153.503 315.44L132.847 322L139.581 302.131C136.186 296.555 134.23 290.008 134.23 283.019C134.232 262.574 150.931 246 171.54 246C192.146 246.005 208.847 262.576 208.847 283.022ZM171.532 251.903C154.237 251.903 140.168 265.865 140.168 283.03C140.168 289.84 142.388 296.145 146.143 301.275L142.227 312.83L154.275 309.002C159.232 312.254 165.162 314.147 171.531 314.147C188.827 314.147 202.901 300.187 202.901 283.023C202.906 265.866 188.83 251.904 171.531 251.904L171.532 251.903ZM190.377 291.549C190.145 291.175 189.535 290.947 188.623 290.491C187.714 290.035 183.211 287.842 182.376 287.544C181.533 287.239 180.923 287.085 180.314 287.995C179.712 288.905 177.957 290.947 177.419 291.557C176.886 292.164 176.353 292.241 175.44 291.793C174.525 291.332 171.576 290.38 168.082 287.29C165.363 284.88 163.527 281.915 162.996 281.004C162.459 280.097 162.942 279.607 163.395 279.156C163.804 278.747 164.31 278.095 164.768 277.563C165.227 277.034 165.378 276.66 165.683 276.053C165.983 275.446 165.832 274.918 165.606 274.46C165.378 274.004 163.551 269.543 162.786 267.726C162.025 265.912 161.264 266.212 160.729 266.212C160.194 266.212 159.586 266.138 158.977 266.138C158.368 266.138 157.376 266.358 156.541 267.268C155.706 268.178 153.342 270.371 153.342 274.837C153.342 279.303 156.615 283.618 157.074 284.222C157.535 284.824 163.404 294.288 172.7 297.922C182 301.553 182 300.341 183.676 300.187C185.357 300.033 189.088 297.993 189.847 295.878C190.61 293.752 190.61 291.929 190.38 291.55L190.377 291.549Z" fill="#32D951"/>
</g>
</g>
<path d="M124.165 163.037C125.546 163.037 126.928 164.419 126.928 165.801V165.54C126.938 171.028 131.39 175.474 136.88 175.474H204.726C210.222 175.474 214.678 171.019 214.678 165.523V165.455C214.678 164.074 215.714 163.037 217.096 163.037H124.165Z" fill="black" fill-opacity="0.2"/>
<rect x="78.8457" y="216" width="8" height="31" rx="2" fill="black" fill-opacity="0.2"/>
<rect x="78.8457" y="253" width="8" height="31" rx="2" fill="black" fill-opacity="0.2"/>
<rect x="253.846" y="225" width="8" height="39" rx="2" fill="black" fill-opacity="0.2"/>
</g>
<defs>
<linearGradient id="paint0_linear_4467_6392" x1="-329.5" y1="-212" x2="342" y2="336.5" gradientUnits="userSpaceOnUse">
<stop stop-color="#FFC592"/>
<stop offset="1" stop-color="#FF8F66"/>
</linearGradient>
<clipPath id="clip0_4467_6392">
<path d="M0 16C0 7.16345 7.16344 0 16 0H325.538C334.375 0 341.538 7.16344 341.538 16V410.923C341.538 419.76 334.375 426.923 325.538 426.923H16C7.16347 426.923 0 419.76 0 410.923V16Z" fill="white"/>
</clipPath>
<clipPath id="clip1_4467_6392">
<rect x="87.3221" y="163.017" width="166.516" height="360.785" rx="10.4651" fill="white"/>
</clipPath>
<clipPath id="clip2_4467_6392">
<rect width="76" height="76" fill="white" transform="translate(132.847 246)"/>
</clipPath>
</defs>
</svg>
