<svg width="342" height="427" viewBox="0 0 342 427" fill="none" xmlns="http://www.w3.org/2000/svg">
<g clip-path="url(#clip0_4467_6410)">
<path d="M0 16C0 7.16345 7.16344 0 16 0H325.538C334.375 0 341.538 7.16344 341.538 16V410.923C341.538 419.76 334.375 426.923 325.538 426.923H16C7.16347 426.923 0 419.76 0 410.923V16Z" fill="url(#paint0_linear_4467_6410)"/>
<path d="M88.0887 50.4548C89.2314 50.4548 90.1733 50.5969 90.9145 50.881C91.6618 51.159 92.2177 51.5851 92.5821 52.1596C92.9465 52.7278 93.1288 53.4505 93.1288 54.3275C93.1288 55.0193 93.0021 55.603 92.7489 56.0786C92.4957 56.5542 92.1621 56.9433 91.7483 57.2459C91.3406 57.5486 90.9021 57.7864 90.4327 57.9593L94.222 64H92.0448L88.7465 58.4596H86.2543V64H84.355V50.4548H88.0887ZM87.9682 52.0669H86.2543V56.8754H88.098C89.1665 56.8754 89.9478 56.6684 90.442 56.2546C90.9361 55.8346 91.1831 55.2169 91.1831 54.4016C91.1831 53.5555 90.9206 52.9563 90.3956 52.6043C89.8706 52.246 89.0615 52.0669 87.9682 52.0669ZM99.6608 53.6049C100.55 53.6049 101.313 53.7963 101.949 54.1793C102.585 54.5561 103.073 55.0903 103.413 55.7821C103.753 56.4739 103.923 57.2892 103.923 58.228V59.2842H96.9926C97.0111 60.3775 97.2921 61.2175 97.8357 61.8042C98.3792 62.3848 99.142 62.6751 100.124 62.6751C100.773 62.6751 101.35 62.6134 101.857 62.4898C102.363 62.3663 102.888 62.1841 103.432 61.9432V63.509C102.919 63.7437 102.403 63.9135 101.884 64.0185C101.372 64.1297 100.757 64.1853 100.041 64.1853C99.0524 64.1853 98.1846 63.9876 97.4373 63.5923C96.6961 63.197 96.1186 62.6134 95.7047 61.8413C95.2909 61.0631 95.084 60.1057 95.084 58.9692C95.084 57.8451 95.2724 56.8846 95.6492 56.0878C96.0259 55.2849 96.5571 54.6703 97.2427 54.2441C97.9283 53.818 98.7343 53.6049 99.6608 53.6049ZM99.6516 55.0502C98.898 55.0502 98.2927 55.2972 97.8357 55.7914C97.3786 56.2793 97.1099 56.9804 97.0296 57.8945H102.051C102.045 57.3324 101.955 56.8383 101.782 56.4121C101.61 55.9859 101.347 55.6524 100.995 55.4115C100.649 55.1706 100.201 55.0502 99.6516 55.0502ZM110.186 64.1853C109.247 64.1853 108.426 63.9969 107.722 63.6201C107.017 63.2434 106.471 62.669 106.082 61.8969C105.699 61.1186 105.507 60.1366 105.507 58.9507C105.507 57.7154 105.714 56.7055 106.128 55.9211C106.542 55.1305 107.113 54.5468 107.842 54.17C108.577 53.7933 109.417 53.6049 110.362 53.6049C110.918 53.6049 111.437 53.6605 111.919 53.7716C112.407 53.8828 112.814 54.0218 113.142 54.1886L112.586 55.6987C112.24 55.5628 111.866 55.4424 111.465 55.3374C111.069 55.2324 110.693 55.1799 110.334 55.1799C109.68 55.1799 109.136 55.325 108.704 55.6153C108.277 55.8995 107.956 56.3195 107.74 56.8754C107.524 57.4312 107.416 58.1168 107.416 58.9321C107.416 59.7227 107.521 60.3929 107.731 60.9426C107.947 61.4861 108.262 61.9 108.676 62.1841C109.096 62.4682 109.618 62.6103 110.242 62.6103C110.791 62.6103 111.285 62.5485 111.724 62.425C112.163 62.3014 112.567 62.1439 112.938 61.9525V63.5923C112.579 63.79 112.184 63.9382 111.752 64.0371C111.319 64.1359 110.798 64.1853 110.186 64.1853ZM116.829 53.7902V64H114.967V53.7902H116.829ZM115.912 49.9267C116.209 49.9267 116.462 50.0132 116.672 50.1861C116.888 50.3591 116.996 50.6401 116.996 51.0292C116.996 51.4184 116.888 51.7025 116.672 51.8816C116.462 52.0546 116.209 52.141 115.912 52.141C115.609 52.141 115.353 52.0546 115.143 51.8816C114.939 51.7025 114.837 51.4184 114.837 51.0292C114.837 50.6401 114.939 50.3591 115.143 50.1861C115.353 50.0132 115.609 49.9267 115.912 49.9267ZM124.649 53.6049C125.891 53.6049 126.882 54.0465 127.623 54.9297C128.371 55.8068 128.744 57.1193 128.744 58.8673C128.744 60.0285 128.571 61.0044 128.225 61.795C127.886 62.5794 127.404 63.1754 126.78 63.5831C126.162 63.9846 125.437 64.1853 124.603 64.1853C124.078 64.1853 123.618 64.1174 123.222 63.9815C122.827 63.8394 122.487 63.6541 122.203 63.4256C121.925 63.1909 121.691 62.9407 121.499 62.6751H121.379C121.403 62.916 121.428 63.197 121.453 63.5182C121.484 63.8332 121.499 64.1174 121.499 64.3706V68.5398H119.628V53.7902H121.156L121.406 55.254H121.499C121.691 54.9514 121.925 54.6765 122.203 54.4294C122.487 54.1762 122.83 53.9755 123.232 53.8272C123.633 53.679 124.106 53.6049 124.649 53.6049ZM124.223 55.1428C123.568 55.1428 123.043 55.2725 122.648 55.532C122.259 55.7852 121.972 56.165 121.786 56.6715C121.607 57.178 121.511 57.8142 121.499 58.5801V58.8766C121.499 59.6919 121.586 60.3805 121.759 60.9426C121.931 61.4985 122.219 61.9247 122.62 62.2212C123.022 62.5115 123.562 62.6566 124.242 62.6566C124.822 62.6566 125.304 62.4991 125.687 62.1841C126.076 61.8691 126.363 61.4244 126.548 60.85C126.74 60.2755 126.836 59.6085 126.836 58.8488C126.836 57.6937 126.623 56.7889 126.196 56.1342C125.77 55.4733 125.112 55.1428 124.223 55.1428ZM132.821 53.7902V64H130.959V53.7902H132.821ZM131.904 49.9267C132.2 49.9267 132.454 50.0132 132.664 50.1861C132.88 50.3591 132.988 50.6401 132.988 51.0292C132.988 51.4184 132.88 51.7025 132.664 51.8816C132.454 52.0546 132.2 52.141 131.904 52.141C131.601 52.141 131.345 52.0546 131.135 51.8816C130.931 51.7025 130.829 51.4184 130.829 51.0292C130.829 50.6401 130.931 50.3591 131.135 50.1861C131.345 50.0132 131.601 49.9267 131.904 49.9267ZM139.622 53.6049C140.511 53.6049 141.274 53.7963 141.91 54.1793C142.546 54.5561 143.034 55.0903 143.374 55.7821C143.714 56.4739 143.884 57.2892 143.884 58.228V59.2842H136.954C136.972 60.3775 137.253 61.2175 137.797 61.8042C138.34 62.3848 139.103 62.6751 140.085 62.6751C140.734 62.6751 141.311 62.6134 141.818 62.4898C142.324 62.3663 142.849 62.1841 143.393 61.9432V63.509C142.88 63.7437 142.364 63.9135 141.845 64.0185C141.333 64.1297 140.718 64.1853 140.002 64.1853C139.013 64.1853 138.146 63.9876 137.398 63.5923C136.657 63.197 136.08 62.6134 135.666 61.8413C135.252 61.0631 135.045 60.1057 135.045 58.9692C135.045 57.8451 135.233 56.8846 135.61 56.0878C135.987 55.2849 136.518 54.6703 137.204 54.2441C137.889 53.818 138.695 53.6049 139.622 53.6049ZM139.613 55.0502C138.859 55.0502 138.254 55.2972 137.797 55.7914C137.34 56.2793 137.071 56.9804 136.991 57.8945H142.012C142.006 57.3324 141.916 56.8383 141.744 56.4121C141.571 55.9859 141.308 55.6524 140.956 55.4115C140.61 55.1706 140.162 55.0502 139.613 55.0502ZM151.12 53.6049C152.3 53.6049 153.204 53.9013 153.834 54.4943C154.471 55.0872 154.789 56.0384 154.789 57.3479V64H152.945V57.598C152.945 56.7827 152.766 56.1712 152.408 55.7636C152.049 55.3497 151.5 55.1428 150.759 55.1428C149.702 55.1428 148.961 55.4547 148.535 56.0786C148.115 56.7024 147.905 57.6073 147.905 58.7932V64H146.043V53.7902H147.516L147.785 55.2262H147.886C148.103 54.868 148.377 54.5684 148.711 54.3275C149.045 54.0866 149.415 53.9075 149.823 53.7902C150.237 53.6666 150.669 53.6049 151.12 53.6049ZM161.08 62.6751C161.346 62.6751 161.614 62.6535 161.886 62.6103C162.158 62.5609 162.392 62.4991 162.59 62.425V63.8518C162.38 63.9444 162.099 64.0216 161.747 64.0834C161.401 64.1513 161.046 64.1853 160.682 64.1853C160.126 64.1853 159.622 64.0896 159.171 63.8981C158.721 63.7066 158.359 63.3793 158.087 62.916C157.822 62.4528 157.689 61.8104 157.689 60.9889V55.2262H156.271V54.3646L157.754 53.679L158.412 51.474H159.561V53.7902H162.516V55.2262H159.561V60.9611C159.561 61.5356 159.696 61.9648 159.968 62.2489C160.246 62.5331 160.617 62.6751 161.08 62.6751ZM175.562 61.1464C175.562 61.8073 175.398 62.3663 175.071 62.8234C174.749 63.2743 174.28 63.614 173.662 63.8425C173.045 64.071 172.303 64.1853 171.439 64.1853C170.722 64.1853 170.105 64.1297 169.586 64.0185C169.067 63.9135 168.598 63.7591 168.178 63.5553V61.9061C168.628 62.1223 169.15 62.3138 169.743 62.4806C170.336 62.6473 170.917 62.7307 171.485 62.7307C172.282 62.7307 172.856 62.6041 173.208 62.3509C173.567 62.0976 173.746 61.7548 173.746 61.3225C173.746 61.0692 173.675 60.8469 173.533 60.6554C173.391 60.4577 173.14 60.2632 172.782 60.0717C172.43 59.8741 171.924 59.6486 171.263 59.3954C170.614 59.1421 170.058 58.8889 169.595 58.6357C169.138 58.3824 168.789 58.0767 168.548 57.7184C168.307 57.3602 168.187 56.897 168.187 56.3287C168.187 55.4455 168.539 54.7722 169.243 54.309C169.953 53.8396 170.889 53.6049 172.05 53.6049C172.668 53.6049 173.248 53.6666 173.792 53.7902C174.342 53.9137 174.867 54.0866 175.367 54.309L174.765 55.745C174.32 55.5536 173.863 55.3961 173.394 55.2725C172.924 55.1428 172.446 55.078 171.958 55.078C171.321 55.078 170.833 55.1799 170.494 55.3837C170.16 55.5875 169.993 55.8686 169.993 56.2268C169.993 56.5048 170.071 56.7364 170.225 56.9217C170.386 57.107 170.651 57.2892 171.022 57.4683C171.392 57.6412 171.893 57.8482 172.523 58.089C173.147 58.3238 173.684 58.5677 174.135 58.821C174.592 59.0742 174.944 59.383 175.191 59.7474C175.438 60.1119 175.562 60.5782 175.562 61.1464ZM179.462 53.7902V64H177.6V53.7902H179.462ZM178.545 49.9267C178.842 49.9267 179.095 50.0132 179.305 50.1861C179.521 50.3591 179.629 50.6401 179.629 51.0292C179.629 51.4184 179.521 51.7025 179.305 51.8816C179.095 52.0546 178.842 52.141 178.545 52.141C178.243 52.141 177.986 52.0546 177.776 51.8816C177.572 51.7025 177.471 51.4184 177.471 51.0292C177.471 50.6401 177.572 50.3591 177.776 50.1861C177.986 50.0132 178.243 49.9267 178.545 49.9267ZM185.151 68.5583C183.786 68.5583 182.736 68.3081 182.001 67.8078C181.273 67.3075 180.908 66.6096 180.908 65.714C180.908 65.0778 181.109 64.5374 181.51 64.0926C181.912 63.6541 182.474 63.3576 183.197 63.2032C182.925 63.0797 182.69 62.8913 182.492 62.6381C182.301 62.3787 182.205 62.0884 182.205 61.7672C182.205 61.3904 182.31 61.0661 182.52 60.7944C182.736 60.5164 183.058 60.2477 183.484 59.9883C182.946 59.766 182.514 59.3985 182.187 58.8858C181.859 58.367 181.696 57.7617 181.696 57.0699C181.696 56.3349 181.85 55.708 182.159 55.1892C182.474 54.6703 182.925 54.275 183.512 54.0033C184.098 53.7315 184.812 53.5956 185.652 53.5956C185.837 53.5956 186.029 53.6049 186.226 53.6234C186.424 53.6358 186.612 53.6574 186.791 53.6883C186.97 53.7191 187.116 53.75 187.227 53.7809H190.747V54.8834L188.931 55.1614C189.111 55.3961 189.256 55.674 189.367 55.9952C189.478 56.3164 189.534 56.6684 189.534 57.0514C189.534 58.089 189.179 58.9105 188.468 59.5158C187.764 60.115 186.788 60.4145 185.541 60.4145C185.25 60.4083 184.957 60.3836 184.66 60.3404C184.395 60.4948 184.194 60.6647 184.058 60.85C183.922 61.0291 183.854 61.236 183.854 61.4707C183.854 61.6498 183.913 61.795 184.03 61.9061C184.154 62.0173 184.33 62.1007 184.558 62.1563C184.787 62.2057 185.065 62.2304 185.392 62.2304H187.171C188.283 62.2304 189.135 62.4651 189.728 62.9345C190.321 63.404 190.618 64.0896 190.618 64.9913C190.618 66.134 190.148 67.0142 189.209 67.6318C188.271 68.2495 186.918 68.5583 185.151 68.5583ZM185.216 67.1964C186.013 67.1964 186.677 67.1161 187.208 66.9555C187.746 66.7949 188.15 66.5664 188.422 66.2699C188.694 65.9734 188.83 65.6213 188.83 65.2137C188.83 64.8431 188.74 64.559 188.561 64.3613C188.388 64.1699 188.129 64.0401 187.783 63.9722C187.437 63.9043 187.011 63.8703 186.504 63.8703H184.818C184.386 63.8703 184.009 63.9382 183.688 64.0741C183.366 64.21 183.116 64.4046 182.937 64.6578C182.758 64.9172 182.668 65.2353 182.668 65.6121C182.668 66.1247 182.888 66.5169 183.326 66.7887C183.771 67.0605 184.401 67.1964 185.216 67.1964ZM185.624 59.1452C186.31 59.1452 186.822 58.9661 187.162 58.6079C187.502 58.2435 187.671 57.7246 187.671 57.0514C187.671 56.3287 187.499 55.7852 187.153 55.4208C186.807 55.0564 186.294 54.8741 185.615 54.8741C184.954 54.8741 184.447 55.0625 184.095 55.4393C183.749 55.8099 183.576 56.3534 183.576 57.0699C183.576 57.7308 183.752 58.2435 184.105 58.6079C184.457 58.9661 184.963 59.1452 185.624 59.1452ZM197.372 53.6049C198.552 53.6049 199.457 53.9013 200.087 54.4943C200.723 55.0872 201.041 56.0384 201.041 57.3479V64H199.197V57.598C199.197 56.7827 199.018 56.1712 198.66 55.7636C198.302 55.3497 197.752 55.1428 197.011 55.1428C195.955 55.1428 195.213 55.4547 194.787 56.0786C194.367 56.7024 194.157 57.6073 194.157 58.7932V64H192.295V53.7902H193.768L194.037 55.2262H194.139C194.355 54.868 194.63 54.5684 194.963 54.3275C195.297 54.0866 195.667 53.9075 196.075 53.7902C196.489 53.6666 196.921 53.6049 197.372 53.6049ZM210.51 61.1464C210.51 61.8073 210.346 62.3663 210.019 62.8234C209.698 63.2743 209.228 63.614 208.611 63.8425C207.993 64.071 207.252 64.1853 206.387 64.1853C205.671 64.1853 205.053 64.1297 204.534 64.0185C204.015 63.9135 203.546 63.7591 203.126 63.5553V61.9061C203.577 62.1223 204.099 62.3138 204.692 62.4806C205.285 62.6473 205.865 62.7307 206.433 62.7307C207.23 62.7307 207.805 62.6041 208.157 62.3509C208.515 62.0976 208.694 61.7548 208.694 61.3225C208.694 61.0692 208.623 60.8469 208.481 60.6554C208.339 60.4577 208.089 60.2632 207.731 60.0717C207.378 59.8741 206.872 59.6486 206.211 59.3954C205.563 59.1421 205.007 58.8889 204.543 58.6357C204.086 58.3824 203.737 58.0767 203.497 57.7184C203.256 57.3602 203.135 56.897 203.135 56.3287C203.135 55.4455 203.487 54.7722 204.191 54.309C204.902 53.8396 205.837 53.6049 206.999 53.6049C207.616 53.6049 208.197 53.6666 208.74 53.7902C209.29 53.9137 209.815 54.0866 210.315 54.309L209.713 55.745C209.269 55.5536 208.811 55.3961 208.342 55.2725C207.873 55.1428 207.394 55.078 206.906 55.078C206.27 55.078 205.782 55.1799 205.442 55.3837C205.109 55.5875 204.942 55.8686 204.942 56.2268C204.942 56.5048 205.019 56.7364 205.173 56.9217C205.334 57.107 205.6 57.2892 205.97 57.4683C206.341 57.6412 206.841 57.8482 207.471 58.089C208.095 58.3238 208.632 58.5677 209.083 58.821C209.54 59.0742 209.892 59.383 210.139 59.7474C210.386 60.1119 210.51 60.5782 210.51 61.1464ZM225.77 53.7902V64H224.278L224.019 62.601H223.917C223.707 62.9531 223.435 63.2465 223.102 63.4812C222.768 63.7159 222.394 63.8919 221.981 64.0093C221.567 64.1266 221.128 64.1853 220.665 64.1853C219.881 64.1853 219.214 64.0556 218.664 63.7962C218.12 63.5368 217.706 63.1353 217.422 62.5917C217.144 62.042 217.005 61.3348 217.005 60.4701V53.7902H218.877V60.2107C218.877 61.0322 219.053 61.6467 219.405 62.0544C219.763 62.462 220.307 62.6659 221.036 62.6659C221.746 62.6659 222.308 62.5269 222.722 62.2489C223.142 61.9648 223.441 61.5541 223.62 61.0167C223.806 60.4732 223.898 59.8092 223.898 59.0248V53.7902H225.77ZM233.599 53.6049C234.841 53.6049 235.832 54.0465 236.573 54.9297C237.32 55.8068 237.694 57.1193 237.694 58.8673C237.694 60.0285 237.521 61.0044 237.175 61.795C236.836 62.5794 236.354 63.1754 235.73 63.5831C235.112 63.9846 234.387 64.1853 233.553 64.1853C233.028 64.1853 232.568 64.1174 232.172 63.9815C231.777 63.8394 231.437 63.6541 231.153 63.4256C230.875 63.1909 230.64 62.9407 230.449 62.6751H230.329C230.353 62.916 230.378 63.197 230.403 63.5182C230.434 63.8332 230.449 64.1174 230.449 64.3706V68.5398H228.578V53.7902H230.106L230.356 55.254H230.449C230.64 54.9514 230.875 54.6765 231.153 54.4294C231.437 54.1762 231.78 53.9755 232.182 53.8272C232.583 53.679 233.056 53.6049 233.599 53.6049ZM233.173 55.1428C232.518 55.1428 231.993 55.2725 231.598 55.532C231.209 55.7852 230.922 56.165 230.736 56.6715C230.557 57.178 230.461 57.8142 230.449 58.5801V58.8766C230.449 59.6919 230.535 60.3805 230.708 60.9426C230.881 61.4985 231.169 61.9247 231.57 62.2212C231.972 62.5115 232.512 62.6566 233.191 62.6566C233.772 62.6566 234.254 62.4991 234.637 62.1841C235.026 61.8691 235.313 61.4244 235.498 60.85C235.69 60.2755 235.786 59.6085 235.786 58.8488C235.786 57.6937 235.572 56.7889 235.146 56.1342C234.72 55.4733 234.062 55.1428 233.173 55.1428ZM248.016 62.6751C248.281 62.6751 248.55 62.6535 248.822 62.6103C249.094 62.5609 249.328 62.4991 249.526 62.425V63.8518C249.316 63.9444 249.035 64.0216 248.683 64.0834C248.337 64.1513 247.982 64.1853 247.617 64.1853C247.062 64.1853 246.558 64.0896 246.107 63.8981C245.656 63.7066 245.295 63.3793 245.023 62.916C244.758 62.4528 244.625 61.8104 244.625 60.9889V55.2262H243.207V54.3646L244.69 53.679L245.348 51.474H246.496V53.7902H249.452V55.2262H246.496V60.9611C246.496 61.5356 246.632 61.9648 246.904 62.2489C247.182 62.5331 247.553 62.6751 248.016 62.6751ZM260.135 58.8766C260.135 59.7166 260.023 60.467 259.801 61.1279C259.585 61.7826 259.267 62.3385 258.847 62.7956C258.433 63.2465 257.933 63.5923 257.346 63.8332C256.759 64.0679 256.095 64.1853 255.354 64.1853C254.662 64.1853 254.026 64.0679 253.445 63.8332C252.871 63.5923 252.374 63.2465 251.954 62.7956C251.534 62.3385 251.21 61.7826 250.981 61.1279C250.752 60.467 250.638 59.7166 250.638 58.8766C250.638 57.7586 250.83 56.8074 251.213 56.023C251.596 55.2324 252.142 54.6333 252.852 54.2256C253.569 53.8118 254.421 53.6049 255.41 53.6049C256.348 53.6049 257.173 53.8118 257.883 54.2256C258.594 54.6394 259.146 55.2386 259.542 56.023C259.937 56.8074 260.135 57.7586 260.135 58.8766ZM252.547 58.8766C252.547 59.661 252.646 60.3373 252.843 60.9055C253.047 61.4676 253.356 61.9 253.77 62.2026C254.19 62.5053 254.73 62.6566 255.391 62.6566C256.04 62.6566 256.574 62.5053 256.994 62.2026C257.414 61.9 257.723 61.4676 257.92 60.9055C258.118 60.3373 258.217 59.661 258.217 58.8766C258.217 58.0983 258.118 57.4312 257.92 56.8754C257.723 56.3195 257.414 55.8933 256.994 55.5968C256.58 55.3003 256.04 55.1521 255.373 55.1521C254.397 55.1521 253.68 55.4795 253.223 56.1342C252.772 56.7827 252.547 57.6968 252.547 58.8766ZM269.78 68.5583C268.415 68.5583 267.365 68.3081 266.63 67.8078C265.901 67.3075 265.537 66.6096 265.537 65.714C265.537 65.0778 265.737 64.5374 266.139 64.0926C266.54 63.6541 267.103 63.3576 267.825 63.2032C267.553 63.0797 267.319 62.8913 267.121 62.6381C266.93 62.3787 266.834 62.0884 266.834 61.7672C266.834 61.3904 266.939 61.0661 267.149 60.7944C267.365 60.5164 267.686 60.2477 268.112 59.9883C267.575 59.766 267.143 59.3985 266.815 58.8858C266.488 58.367 266.324 57.7617 266.324 57.0699C266.324 56.3349 266.479 55.708 266.788 55.1892C267.103 54.6703 267.553 54.275 268.14 54.0033C268.727 53.7315 269.44 53.5956 270.28 53.5956C270.466 53.5956 270.657 53.6049 270.855 53.6234C271.052 53.6358 271.241 53.6574 271.42 53.6883C271.599 53.7191 271.744 53.75 271.855 53.7809H275.376V54.8834L273.56 55.1614C273.739 55.3961 273.884 55.674 273.996 55.9952C274.107 56.3164 274.162 56.6684 274.162 57.0514C274.162 58.089 273.807 58.9105 273.097 59.5158C272.393 60.115 271.417 60.4145 270.169 60.4145C269.879 60.4083 269.585 60.3836 269.289 60.3404C269.023 60.4948 268.823 60.6647 268.687 60.85C268.551 61.0291 268.483 61.236 268.483 61.4707C268.483 61.6498 268.542 61.795 268.659 61.9061C268.783 62.0173 268.959 62.1007 269.187 62.1563C269.416 62.2057 269.694 62.2304 270.021 62.2304H271.8C272.912 62.2304 273.764 62.4651 274.357 62.9345C274.95 63.404 275.246 64.0896 275.246 64.9913C275.246 66.134 274.777 67.0142 273.838 67.6318C272.899 68.2495 271.547 68.5583 269.78 68.5583ZM269.845 67.1964C270.642 67.1964 271.306 67.1161 271.837 66.9555C272.374 66.7949 272.779 66.5664 273.051 66.2699C273.322 65.9734 273.458 65.6213 273.458 65.2137C273.458 64.8431 273.369 64.559 273.189 64.3613C273.017 64.1699 272.757 64.0401 272.411 63.9722C272.065 63.9043 271.639 63.8703 271.133 63.8703H269.447C269.014 63.8703 268.637 63.9382 268.316 64.0741C267.995 64.21 267.745 64.4046 267.566 64.6578C267.387 64.9172 267.297 65.2353 267.297 65.6121C267.297 66.1247 267.516 66.5169 267.955 66.7887C268.4 67.0605 269.03 67.1964 269.845 67.1964ZM270.253 59.1452C270.938 59.1452 271.451 58.9661 271.791 58.6079C272.13 58.2435 272.3 57.7246 272.3 57.0514C272.3 56.3287 272.127 55.7852 271.781 55.4208C271.435 55.0564 270.923 54.8741 270.243 54.8741C269.582 54.8741 269.076 55.0625 268.724 55.4393C268.378 55.8099 268.205 56.3534 268.205 57.0699C268.205 57.7308 268.381 58.2435 268.733 58.6079C269.085 58.9661 269.592 59.1452 270.253 59.1452ZM280.926 53.6049C281.815 53.6049 282.578 53.7963 283.214 54.1793C283.851 54.5561 284.339 55.0903 284.678 55.7821C285.018 56.4739 285.188 57.2892 285.188 58.228V59.2842H278.258C278.276 60.3775 278.557 61.2175 279.101 61.8042C279.644 62.3848 280.407 62.6751 281.389 62.6751C282.038 62.6751 282.615 62.6134 283.122 62.4898C283.628 62.3663 284.153 62.1841 284.697 61.9432V63.509C284.184 63.7437 283.668 63.9135 283.15 64.0185C282.637 64.1297 282.022 64.1853 281.306 64.1853C280.318 64.1853 279.45 63.9876 278.702 63.5923C277.961 63.197 277.384 62.6134 276.97 61.8413C276.556 61.0631 276.349 60.1057 276.349 58.9692C276.349 57.8451 276.538 56.8846 276.914 56.0878C277.291 55.2849 277.822 54.6703 278.508 54.2441C279.193 53.818 280 53.6049 280.926 53.6049ZM280.917 55.0502C280.163 55.0502 279.558 55.2972 279.101 55.7914C278.644 56.2793 278.375 56.9804 278.295 57.8945H283.316C283.31 57.3324 283.221 56.8383 283.048 56.4121C282.875 55.9859 282.612 55.6524 282.26 55.4115C281.914 55.1706 281.466 55.0502 280.917 55.0502ZM290.905 62.6751C291.17 62.6751 291.439 62.6535 291.711 62.6103C291.982 62.5609 292.217 62.4991 292.415 62.425V63.8518C292.205 63.9444 291.924 64.0216 291.572 64.0834C291.226 64.1513 290.871 64.1853 290.506 64.1853C289.95 64.1853 289.447 64.0896 288.996 63.8981C288.545 63.7066 288.184 63.3793 287.912 62.916C287.646 62.4528 287.514 61.8104 287.514 60.9889V55.2262H286.096V54.3646L287.579 53.679L288.236 51.474H289.385V53.7902H292.341V55.2262H289.385V60.9611C289.385 61.5356 289.521 61.9648 289.793 62.2489C290.071 62.5331 290.441 62.6751 290.905 62.6751ZM95.4357 76.6049C96.566 76.6049 97.4184 76.9013 97.9928 77.4943C98.5734 78.0811 98.8637 79.023 98.8637 80.3201V87H97.02V80.5517C97.02 79.7487 96.8532 79.1465 96.5197 78.745C96.1923 78.3436 95.7013 78.1428 95.0466 78.1428C94.1201 78.1428 93.4499 78.4239 93.0361 78.9859C92.6285 79.5418 92.4246 80.3602 92.4246 81.4411V87H90.5717V80.5517C90.5717 80.0143 90.4975 79.5696 90.3493 79.2175C90.2011 78.8593 89.9818 78.5906 89.6915 78.4115C89.4012 78.2324 89.0337 78.1428 88.589 78.1428C87.9528 78.1428 87.4432 78.2818 87.0603 78.5597C86.6835 78.8315 86.4087 79.2361 86.2357 79.7734C86.069 80.3108 85.9856 80.9686 85.9856 81.7468V87H84.1233V76.7902H85.5965L85.8651 78.1984H85.967C86.1709 77.8464 86.4272 77.553 86.736 77.3183C87.051 77.0836 87.4 76.9075 87.783 76.7902C88.1659 76.6666 88.5705 76.6049 88.9966 76.6049C89.7625 76.6049 90.408 76.7438 90.933 77.0218C91.458 77.2997 91.844 77.7228 92.0911 78.2911H92.2115C92.5389 77.7166 92.9898 77.2936 93.5642 77.0218C94.1448 76.7438 94.7686 76.6049 95.4357 76.6049ZM110.26 76.7902V87H108.768L108.509 85.601H108.407C108.197 85.9531 107.925 86.2465 107.592 86.4812C107.258 86.7159 106.884 86.8919 106.47 87.0093C106.057 87.1266 105.618 87.1853 105.155 87.1853C104.37 87.1853 103.703 87.0556 103.154 86.7962C102.61 86.5368 102.196 86.1353 101.912 85.5917C101.634 85.042 101.495 84.3348 101.495 83.4701V76.7902H103.367V83.2107C103.367 84.0322 103.543 84.6467 103.895 85.0544C104.253 85.462 104.797 85.6659 105.525 85.6659C106.236 85.6659 106.798 85.5269 107.212 85.2489C107.632 84.9648 107.931 84.5541 108.11 84.0167C108.296 83.4732 108.388 82.8092 108.388 82.0248V76.7902H110.26ZM116.625 85.6751C116.891 85.6751 117.159 85.6535 117.431 85.6103C117.703 85.5609 117.938 85.4991 118.135 85.425V86.8518C117.925 86.9444 117.644 87.0216 117.292 87.0834C116.946 87.1513 116.591 87.1853 116.227 87.1853C115.671 87.1853 115.167 87.0896 114.717 86.8981C114.266 86.7066 113.904 86.3793 113.633 85.916C113.367 85.4528 113.234 84.8104 113.234 83.9889V78.2262H111.817V77.3646L113.299 76.679L113.957 74.474H115.106V76.7902H118.061V78.2262H115.106V83.9611C115.106 84.5356 115.242 84.9648 115.513 85.2489C115.791 85.5331 116.162 85.6751 116.625 85.6751ZM128.494 76.7902V87H127.002L126.743 85.601H126.641C126.431 85.9531 126.159 86.2465 125.825 86.4812C125.492 86.7159 125.118 86.8919 124.704 87.0093C124.291 87.1266 123.852 87.1853 123.389 87.1853C122.604 87.1853 121.937 87.0556 121.388 86.7962C120.844 86.5368 120.43 86.1353 120.146 85.5917C119.868 85.042 119.729 84.3348 119.729 83.4701V76.7902H121.601V83.2107C121.601 84.0322 121.777 84.6467 122.129 85.0544C122.487 85.462 123.031 85.6659 123.759 85.6659C124.47 85.6659 125.032 85.5269 125.446 85.2489C125.866 84.9648 126.165 84.5541 126.344 84.0167C126.53 83.4732 126.622 82.8092 126.622 82.0248V76.7902H128.494ZM135.211 76.6141C136.471 76.6141 137.413 76.8952 138.037 77.4572C138.661 78.0131 138.973 78.8933 138.973 80.0977V87H137.638L137.277 85.5176H137.203C136.919 85.8882 136.622 86.197 136.314 86.4441C136.005 86.6912 135.647 86.8765 135.239 87C134.837 87.1235 134.346 87.1853 133.766 87.1853C133.148 87.1853 132.598 87.0741 132.117 86.8518C131.635 86.6294 131.255 86.2959 130.977 85.8512C130.705 85.4003 130.569 84.8289 130.569 84.1372C130.569 83.0995 130.968 82.312 131.765 81.7746C132.561 81.2373 133.769 80.9439 135.387 80.8945L137.147 80.8204V80.2459C137.147 79.4492 136.968 78.8871 136.61 78.5597C136.258 78.2324 135.764 78.0687 135.128 78.0687C134.603 78.0687 134.099 78.1459 133.618 78.3003C133.136 78.4486 132.673 78.6277 132.228 78.8377L131.635 77.485C132.117 77.238 132.663 77.031 133.275 76.8643C133.892 76.6975 134.538 76.6141 135.211 76.6141ZM137.129 82.0433L135.702 82.1082C134.522 82.1514 133.692 82.3491 133.21 82.7011C132.734 83.047 132.496 83.5319 132.496 84.1557C132.496 84.6992 132.66 85.0976 132.988 85.3509C133.315 85.6041 133.747 85.7307 134.285 85.7307C135.112 85.7307 135.792 85.4991 136.323 85.0359C136.86 84.5664 137.129 83.8747 137.129 82.9605V82.0433ZM143.578 87H141.706V72.5839H143.578V87ZM155.743 78.2262H153.232V87H151.37V78.2262H149.638V77.3275L151.37 76.7624V76.0582C151.37 75.1997 151.503 74.511 151.768 73.9922C152.034 73.4672 152.414 73.0842 152.908 72.8433C153.408 72.6025 154.014 72.482 154.724 72.482C155.15 72.482 155.539 72.5191 155.891 72.5932C156.25 72.6673 156.558 72.7507 156.818 72.8433L156.336 74.2701C156.126 74.2022 155.891 74.1404 155.632 74.0848C155.372 74.0231 155.098 73.9922 154.807 73.9922C154.27 73.9922 153.872 74.1651 153.612 74.511C153.359 74.8569 153.232 75.3788 153.232 76.0768V76.7902H155.743V78.2262ZM165.842 76.7902V87H164.35L164.091 85.601H163.989C163.779 85.9531 163.507 86.2465 163.174 86.4812C162.84 86.7159 162.467 86.8919 162.053 87.0093C161.639 87.1266 161.2 87.1853 160.737 87.1853C159.953 87.1853 159.286 87.0556 158.736 86.7962C158.192 86.5368 157.779 86.1353 157.494 85.5917C157.217 85.042 157.078 84.3348 157.078 83.4701V76.7902H158.949V83.2107C158.949 84.0322 159.125 84.6467 159.477 85.0544C159.835 85.462 160.379 85.6659 161.108 85.6659C161.818 85.6659 162.38 85.5269 162.794 85.2489C163.214 84.9648 163.514 84.5541 163.693 84.0167C163.878 83.4732 163.971 82.8092 163.971 82.0248V76.7902H165.842ZM173.727 76.6049C174.907 76.6049 175.811 76.9013 176.441 77.4943C177.078 78.0872 177.396 79.0384 177.396 80.3479V87H175.552V80.598C175.552 79.7827 175.373 79.1712 175.015 78.7636C174.656 78.3497 174.107 78.1428 173.365 78.1428C172.309 78.1428 171.568 78.4547 171.142 79.0786C170.722 79.7024 170.512 80.6073 170.512 81.7932V87H168.65V76.7902H170.123L170.391 78.2262H170.493C170.71 77.868 170.984 77.5684 171.318 77.3275C171.651 77.0866 172.022 76.9075 172.43 76.7902C172.844 76.6666 173.276 76.6049 173.727 76.6049ZM183.659 87.1853C182.411 87.1853 181.414 86.7437 180.667 85.8604C179.925 84.9772 179.555 83.6678 179.555 81.9321C179.555 80.178 179.932 78.8531 180.685 77.9575C181.445 77.0558 182.452 76.6049 183.705 76.6049C184.23 76.6049 184.691 76.6759 185.086 76.818C185.481 76.96 185.821 77.1484 186.105 77.3831C186.395 77.6178 186.636 77.8834 186.828 78.1799H186.939C186.908 77.9884 186.877 77.7197 186.846 77.3738C186.815 77.028 186.8 76.7253 186.8 76.4659V72.5839H188.662V87H187.189L186.883 85.5825H186.8C186.615 85.879 186.377 86.1507 186.086 86.3978C185.802 86.6387 185.46 86.8301 185.058 86.9722C184.663 87.1143 184.196 87.1853 183.659 87.1853ZM184.095 85.6659C185.101 85.6659 185.812 85.3756 186.225 84.795C186.645 84.2144 186.859 83.3527 186.865 82.2101V81.9229C186.865 80.7061 186.664 79.7734 186.262 79.1249C185.867 78.4702 185.138 78.1428 184.076 78.1428C183.211 78.1428 182.56 78.4825 182.121 79.162C181.683 79.8352 181.463 80.771 181.463 81.9692C181.463 83.1551 181.683 84.0692 182.121 84.7116C182.56 85.3478 183.217 85.6659 184.095 85.6659ZM204.682 76.7902V87H203.19L202.931 85.601H202.829C202.619 85.9531 202.347 86.2465 202.013 86.4812C201.68 86.7159 201.306 86.8919 200.892 87.0093C200.479 87.1266 200.04 87.1853 199.577 87.1853C198.792 87.1853 198.125 87.0556 197.576 86.7962C197.032 86.5368 196.618 86.1353 196.334 85.5917C196.056 85.042 195.917 84.3348 195.917 83.4701V76.7902H197.789V83.2107C197.789 84.0322 197.965 84.6467 198.317 85.0544C198.675 85.462 199.219 85.6659 199.947 85.6659C200.658 85.6659 201.22 85.5269 201.634 85.2489C202.054 84.9648 202.353 84.5541 202.532 84.0167C202.718 83.4732 202.81 82.8092 202.81 82.0248V76.7902H204.682ZM212.566 76.6049C213.746 76.6049 214.651 76.9013 215.281 77.4943C215.917 78.0872 216.235 79.0384 216.235 80.3479V87H214.392V80.598C214.392 79.7827 214.212 79.1712 213.854 78.7636C213.496 78.3497 212.946 78.1428 212.205 78.1428C211.149 78.1428 210.408 78.4547 209.982 79.0786C209.562 79.7024 209.352 80.6073 209.352 81.7932V87H207.489V76.7902H208.962L209.231 78.2262H209.333C209.549 77.868 209.824 77.5684 210.158 77.3275C210.491 77.0866 210.862 76.9075 211.269 76.7902C211.683 76.6666 212.116 76.6049 212.566 76.6049ZM220.831 76.7902V87H218.969V76.7902H220.831ZM219.914 72.9267C220.21 72.9267 220.464 73.0132 220.674 73.1861C220.89 73.3591 220.998 73.6401 220.998 74.0292C220.998 74.4184 220.89 74.7025 220.674 74.8816C220.464 75.0546 220.21 75.141 219.914 75.141C219.611 75.141 219.355 75.0546 219.145 74.8816C218.941 74.7025 218.839 74.4184 218.839 74.0292C218.839 73.6401 218.941 73.3591 219.145 73.1861C219.355 73.0132 219.611 72.9267 219.914 72.9267ZM227.187 85.6751C227.453 85.6751 227.721 85.6535 227.993 85.6103C228.265 85.5609 228.5 85.4991 228.697 85.425V86.8518C228.487 86.9444 228.206 87.0216 227.854 87.0834C227.508 87.1513 227.153 87.1853 226.789 87.1853C226.233 87.1853 225.729 87.0896 225.278 86.8981C224.828 86.7066 224.466 86.3793 224.195 85.916C223.929 85.4528 223.796 84.8104 223.796 83.9889V78.2262H222.379V77.3646L223.861 76.679L224.519 74.474H225.668V76.7902H228.623V78.2262H225.668V83.9611C225.668 84.5356 225.804 84.9648 226.075 85.2489C226.353 85.5331 226.724 85.6751 227.187 85.6751ZM237.119 84.1464C237.119 84.8073 236.956 85.3663 236.628 85.8234C236.307 86.2743 235.838 86.614 235.22 86.8425C234.602 87.071 233.861 87.1853 232.996 87.1853C232.28 87.1853 231.662 87.1297 231.143 87.0185C230.625 86.9135 230.155 86.7591 229.735 86.5553V84.9061C230.186 85.1223 230.708 85.3138 231.301 85.4806C231.894 85.6473 232.475 85.7307 233.043 85.7307C233.84 85.7307 234.414 85.6041 234.766 85.3509C235.124 85.0976 235.303 84.7548 235.303 84.3225C235.303 84.0692 235.232 83.8469 235.09 83.6554C234.948 83.4577 234.698 83.2632 234.34 83.0717C233.988 82.8741 233.481 82.6486 232.82 82.3954C232.172 82.1421 231.616 81.8889 231.153 81.6357C230.696 81.3824 230.347 81.0767 230.106 80.7184C229.865 80.3602 229.745 79.897 229.745 79.3287C229.745 78.4455 230.097 77.7722 230.801 77.309C231.511 76.8396 232.447 76.6049 233.608 76.6049C234.226 76.6049 234.806 76.6666 235.35 76.7902C235.899 76.9137 236.424 77.0866 236.925 77.309L236.323 78.745C235.878 78.5536 235.421 78.3961 234.951 78.2725C234.482 78.1428 234.003 78.078 233.515 78.078C232.879 78.078 232.391 78.1799 232.051 78.3837C231.718 78.5875 231.551 78.8686 231.551 79.2268C231.551 79.5048 231.628 79.7364 231.783 79.9217C231.943 80.107 232.209 80.2892 232.58 80.4683C232.95 80.6412 233.45 80.8482 234.08 81.089C234.704 81.3238 235.242 81.5677 235.693 81.821C236.15 82.0742 236.502 82.383 236.749 82.7474C236.996 83.1119 237.119 83.5782 237.119 84.1464Z" fill="#482E4D"/>
<path d="M61.3203 50.2188C61.3203 52.3854 60.8516 54.2604 59.9141 55.8438C58.9974 57.4062 57.7682 58.6875 56.2266 59.6875C54.7057 60.6875 53.0391 61.4375 51.2266 61.9375V62.125C54.8724 62.5833 57.6849 63.6979 59.6641 65.4688C61.6641 67.2188 62.6641 69.7083 62.6641 72.9375C62.6641 75.4375 61.9974 77.7292 60.6641 79.8125C59.3307 81.875 57.2578 83.5312 54.4453 84.7812C51.6328 86.0104 48.0182 86.625 43.6016 86.625C40.6432 86.625 38.1224 86.4062 36.0391 85.9688C33.9557 85.5312 31.9349 84.9271 29.9766 84.1562V73.9062C31.9557 74.9271 33.987 75.6875 36.0703 76.1875C38.1745 76.6667 40.0911 76.9062 41.8203 76.9062C44.8203 76.9062 46.862 76.4792 47.9453 75.625C49.0495 74.7708 49.6016 73.625 49.6016 72.1875C49.6016 71.1458 49.3411 70.2604 48.8203 69.5312C48.2995 68.8021 47.3307 68.2396 45.9141 67.8438C44.5182 67.4479 42.5078 67.25 39.8828 67.25H37.0703V57.9688H39.9453C42.2786 57.9688 44.1224 57.7604 45.4766 57.3438C46.8516 56.9271 47.8411 56.3646 48.4453 55.6562C49.0495 54.9271 49.3516 54.0938 49.3516 53.1562C49.3516 51.9479 48.8828 51.0521 47.9453 50.4688C47.0078 49.8854 45.7682 49.5938 44.2266 49.5938C42.8516 49.5938 41.5599 49.7812 40.3516 50.1562C39.1432 50.5312 38.0911 50.9479 37.1953 51.4062C36.2995 51.8646 35.6224 52.2396 35.1641 52.5312L30.0391 44.2812C31.9349 42.9896 34.1016 41.8958 36.5391 41C38.9974 40.1042 42.2057 39.6562 46.1641 39.6562C50.8724 39.6562 54.5703 40.5938 57.2578 42.4688C59.9661 44.3438 61.3203 46.9271 61.3203 50.2188Z" fill="#482E4D"/>
<rect x="80.7356" y="157" width="178.954" height="373" rx="13.0814" fill="black" fill-opacity="0.2"/>
<g clip-path="url(#clip1_4467_6410)">
<rect x="87.0155" y="163.017" width="166.516" height="360.785" rx="10.4651" fill="#482E4D"/>
<path d="M253.618 159.093H86.7559V525.634H253.618V159.093Z" fill="#FAF5F0"/>
<path d="M192.336 308.102C196.865 303.548 199.941 297.755 201.178 291.453C202.415 285.152 201.757 278.625 199.286 272.698C196.816 266.771 192.643 261.709 187.297 258.151C181.951 254.594 175.67 252.701 169.248 252.712C162.827 252.723 156.552 254.636 151.218 258.212C145.883 261.787 141.728 266.863 139.277 272.798C136.826 278.734 136.19 285.263 137.448 291.56C138.706 297.857 141.802 303.64 146.345 308.178C149.37 311.194 152.959 313.584 156.907 315.212C160.855 316.84 165.086 317.675 169.357 317.668C173.628 317.66 177.855 316.812 181.798 315.171C185.741 313.529 189.322 311.127 192.336 308.102Z" fill="#FF8F66"/>
<path d="M191.875 271.602C191.576 271.285 191.217 271.03 190.818 270.853C190.42 270.676 189.99 270.581 189.554 270.573C188.673 270.554 187.819 270.879 187.173 271.479L165.906 291.701L155.749 281.267C155.447 280.947 155.08 280.696 154.673 280.53C154.273 280.362 153.846 280.268 153.413 280.253C152.971 280.25 152.532 280.334 152.122 280.499C151.716 280.661 151.345 280.901 151.031 281.206C150.724 281.515 150.479 281.88 150.309 282.282C150.127 282.682 150.032 283.117 150.032 283.557C150.031 283.993 150.11 284.425 150.263 284.832C150.429 285.241 150.674 285.611 150.985 285.923L163.416 298.677C164.032 299.271 164.851 299.609 165.706 299.624C166.562 299.638 167.391 299.327 168.026 298.754L191.675 276.273C191.99 275.97 192.245 275.61 192.428 275.213C192.596 274.813 192.69 274.386 192.704 273.953C192.718 273.513 192.645 273.074 192.489 272.662C192.348 272.276 192.14 271.917 191.875 271.602Z" fill="white"/>
<path d="M169.693 231.287C169.75 231.878 169.79 232.471 169.809 233.064L169.824 233.901C169.822 234.772 169.777 235.642 169.694 236.508C169.611 235.638 169.573 234.765 169.581 233.892V233.876C169.573 233.011 169.611 232.147 169.693 231.287Z" fill="#F07E5B" stroke="#482E4D" stroke-width="1.72362"/>
<path d="M206.81 247.008C205.861 248.116 204.827 249.147 203.715 250.091C204.169 249.556 204.644 249.041 205.144 248.549L205.149 248.544C205.682 248.01 206.237 247.499 206.81 247.008Z" fill="#F07E5B" stroke="#482E4D" stroke-width="1.72362"/>
<path d="M217.425 284.04C219.11 283.881 220.806 283.881 222.491 284.04C220.806 284.194 219.11 284.194 217.425 284.04Z" fill="#F07E5B" stroke="#482E4D" stroke-width="1.72362"/>
<path d="M203.406 317.808C204.7 318.888 205.893 320.082 206.972 321.377C205.676 320.3 204.481 319.106 203.406 317.808Z" fill="#F07E5B" stroke="#482E4D" stroke-width="1.72362"/>
<path d="M169.693 331.811C169.75 332.399 169.79 332.99 169.809 333.581L169.824 334.418C169.822 335.291 169.776 336.163 169.693 337.032C169.611 336.165 169.573 335.295 169.581 334.424V334.408C169.573 333.541 169.61 332.674 169.693 331.811Z" fill="#F07E5B" stroke="#482E4D" stroke-width="1.72362"/>
<path d="M136.136 317.828C135.002 319.199 133.74 320.457 132.363 321.581C132.906 320.924 133.479 320.294 134.081 319.69L134.084 319.688C134.733 319.03 135.419 318.41 136.136 317.828Z" fill="#F07E5B" stroke="#482E4D" stroke-width="1.72362"/>
<path d="M119.442 284.198H119.448C120.317 284.19 121.185 284.228 122.05 284.312C121.182 284.395 120.31 284.439 119.438 284.441C118.572 284.444 117.706 284.403 116.844 284.324C117.707 284.242 118.574 284.2 119.442 284.198Z" fill="#F07E5B" stroke="#482E4D" stroke-width="1.72362"/>
<path d="M132.252 246.808C133.788 248.024 135.188 249.402 136.428 250.92C135.604 250.271 134.821 249.574 134.084 248.828L134.079 248.823L133.495 248.224C133.064 247.767 132.65 247.293 132.252 246.808Z" fill="#F07E5B" stroke="#482E4D" stroke-width="1.72362"/>
<path d="M159.813 380H155.156L150.088 371.849L148.355 373.093V380H144.253V360.655H148.355V369.507C148.628 369.128 148.897 368.749 149.162 368.37C149.426 367.99 149.695 367.611 149.969 367.232L155.209 360.655H159.76L153.012 369.216L159.813 380ZM169.894 368.621L173.93 360.655H178.349L171.932 372.471V380H167.857V372.604L161.439 360.655H165.885L169.894 368.621ZM190.627 363.791C189.842 363.791 189.145 363.946 188.536 364.254C187.936 364.554 187.429 364.991 187.015 365.564C186.609 366.138 186.3 366.83 186.088 367.642C185.877 368.453 185.771 369.366 185.771 370.381C185.771 371.748 185.938 372.917 186.274 373.887C186.618 374.849 187.147 375.585 187.861 376.097C188.576 376.6 189.498 376.851 190.627 376.851C191.412 376.851 192.197 376.763 192.982 376.586C193.776 376.41 194.636 376.159 195.562 375.832V379.272C194.707 379.625 193.864 379.877 193.035 380.027C192.206 380.185 191.275 380.265 190.243 380.265C188.25 380.265 186.609 379.855 185.321 379.034C184.042 378.205 183.094 377.05 182.476 375.568C181.859 374.077 181.55 372.339 181.55 370.354C181.55 368.89 181.748 367.549 182.145 366.332C182.542 365.115 183.124 364.06 183.892 363.169C184.659 362.278 185.608 361.59 186.737 361.105C187.866 360.62 189.163 360.378 190.627 360.378C191.588 360.378 192.55 360.501 193.511 360.748C194.482 360.986 195.408 361.317 196.29 361.74L194.967 365.075C194.244 364.731 193.516 364.431 192.784 364.175C192.051 363.919 191.333 363.791 190.627 363.791Z" fill="#482E4D"/>
</g>
<path d="M123.858 163.037C125.24 163.037 126.622 164.419 126.622 165.801V165.54C126.631 171.028 131.083 175.474 136.573 175.474H204.42C209.916 175.474 214.371 171.019 214.371 165.523V165.455C214.371 164.074 215.408 163.037 216.789 163.037H123.858Z" fill="black" fill-opacity="0.2"/>
<rect x="78.5391" y="216" width="8" height="31" rx="2" fill="black" fill-opacity="0.2"/>
<rect x="78.5391" y="253" width="8" height="31" rx="2" fill="black" fill-opacity="0.2"/>
<rect x="253.539" y="225" width="8" height="39" rx="2" fill="black" fill-opacity="0.2"/>
</g>
<defs>
<linearGradient id="paint0_linear_4467_6410" x1="-329.5" y1="-212" x2="342" y2="336.5" gradientUnits="userSpaceOnUse">
<stop stop-color="#FFC592"/>
<stop offset="1" stop-color="#FF8F66"/>
</linearGradient>
<clipPath id="clip0_4467_6410">
<path d="M0 16C0 7.16345 7.16344 0 16 0H325.538C334.375 0 341.538 7.16344 341.538 16V410.923C341.538 419.76 334.375 426.923 325.538 426.923H16C7.16347 426.923 0 419.76 0 410.923V16Z" fill="white"/>
</clipPath>
<clipPath id="clip1_4467_6410">
<rect x="87.0155" y="163.017" width="166.516" height="360.785" rx="10.4651" fill="white"/>
</clipPath>
</defs>
</svg>
