<svg width="32" height="32" viewBox="0 0 32 32" fill="none" xmlns="http://www.w3.org/2000/svg">
<path d="M15.8955 0C24.6694 0.000222146 31.79 7.12155 31.79 15.8955C31.7898 24.6693 24.6693 31.7898 15.8955 31.79C7.12155 31.79 0.000222133 24.6694 0 15.8955C0 7.12141 7.12141 0 15.8955 0ZM15.8955 3.17871C8.88577 3.17871 3.17871 8.88577 3.17871 15.8955C3.17893 22.9051 8.88591 28.6113 15.8955 28.6113C22.9049 28.6111 28.6111 22.9049 28.6113 15.8955C28.6113 8.88591 22.9051 3.17893 15.8955 3.17871ZM12.7158 10.332C12.7158 9.68038 13.4628 9.29905 13.9873 9.69629L21.4111 15.2598C21.8398 15.5778 21.84 16.2134 21.4111 16.5312L13.9873 22.0938C13.4628 22.4911 12.7158 22.1097 12.7158 21.458V10.332Z" fill="#FF8F66"/>
</svg>
